<?xml version="1.0" encoding="utf-8"?>
<!-- Generator: Adobe Illustrator 19.1.0, SVG Export Plug-In . SVG Version: 6.00 Build 0)  -->
<svg version="1.1" id="レイヤー_1" xmlns="http://www.w3.org/2000/svg" xmlns:xlink="http://www.w3.org/1999/xlink" x="0px"
	 y="0px" viewBox="0 0 62 62" style="enable-background:new 0 0 62 62;" xml:space="preserve">
<style type="text/css">
	.st0{fill:#626F74;}
</style>
<g id="jCvow3.tif">
	<g>
		<path class="st0" d="M18.4,49.2C18.4,49.2,18.4,49.2,18.4,49.2L18.4,49.2z"/>
		<path class="st0" d="M61.3,37.2c-1.1-1.8-2.2-3.7-3.3-5.6c-0.2-0.3-0.2-0.5,0-0.8c1.1-1.8,2.1-3.6,3.2-5.4
			c0.3-0.4,0.3-0.9,0.2-1.3c-0.7-2.5-1.3-4.9-2-7.4c-0.8-3.1-1.7-6.2-2.5-9.4C56.3,5,55.6,2.7,55,0.3c0-0.1-0.1-0.2-0.2-0.3
			c-0.1,0-0.1,0-0.2,0c-0.2,0.1-0.5,0.1-0.7,0.1C51.6,0.7,49.3,1.3,47,2c-3.1,0.8-6.3,1.7-9.4,2.5c-2.5,0.7-4.9,1.3-7.4,2
			c-0.3,0.1-0.5,0.2-0.6,0.5c-1.1,1.9-2.1,3.8-3.2,5.7C26.2,12.9,26,13,25.7,13c-2.2,0-4.3,0-6.5-0.1c-0.3,0-0.5,0.1-0.8,0.3
			c-1.8,1.8-3.5,3.5-5.3,5.3C9,22.6,4.9,26.7,0.8,30.8c-0.4,0.4-0.4,0.4,0,0.8c5.9,5.9,11.7,11.7,17.6,17.6c0,0,0,0,0,0c0,0,0,0,0,0
			c0,0,0,0,0,0c0.2,0.2,0.4,0.3,0.7,0.3c0.7,0,1.5,0,2.2-0.1c1.5,0,2.9,0,4.4,0c0.3,0,0.5,0.1,0.6,0.3c1.1,1.9,2.2,3.8,3.3,5.7
			c0.1,0.2,0.3,0.4,0.6,0.5c3.6,0.9,7.1,1.9,10.7,2.8c3.2,0.9,6.5,1.7,9.7,2.6c0.7,0.2,1.5,0.5,2.2,0.5c0.6,0.1,1.2,0,1.9,0
			c0.4,0,0.4,0,0.5-0.4c0.4-1.4,0.7-2.7,1.1-4.1c0.8-2.9,1.5-5.8,2.3-8.6c0.9-3.5,1.9-7,2.8-10.6C61.5,38,61.6,37.6,61.3,37.2z
			 M14.2,27.1c2.3-2.3,4.5-4.6,6.8-6.9c1.9-1.9,3.8-3.9,5.7-5.8c0.1-0.1,0.3-0.2,0.5-0.3c6.1-1.6,12.1-3.1,18.2-4.7
			c0.1,0,0.3-0.2,0.4-0.1c0.1,0.1-0.1,0.3-0.2,0.4c-3.5,6-7,12.1-10.5,18.1c-0.1,0.2-0.2,0.2-0.4,0.2c-7.1,0-14.2,0-21.3,0
			c-0.1,0-0.2,0-0.2,0c0,0,0-0.1-0.1-0.1C13.4,27.7,13.8,27.4,14.2,27.1z M42.7,52.3c-5.2-1.3-10.4-2.7-15.7-4
			c-0.1,0-0.2-0.1-0.3-0.2c-2.5-2.5-5-5.1-7.5-7.6c-1.3-1.3-2.5-2.6-3.8-3.8c-0.8-0.8-1.6-1.5-2.4-2.3c0.2-0.2,0.3-0.1,0.3-0.1
			c7.1,0,14.2,0,21.2,0c0.2,0,0.3,0.1,0.4,0.2c3.5,6.1,7.1,12.2,10.6,18.3c0,0.1,0.1,0.2,0.1,0.3C44.8,52.9,43.7,52.6,42.7,52.3z
			 M56.4,31.5c-1.7,6.2-3.5,12.3-5.2,18.5c-0.2-0.3-0.4-0.6-0.5-0.8c-3.4-5.9-6.8-11.8-10.2-17.7c-0.1-0.2-0.1-0.4,0-0.6
			C44,24.8,47.5,18.8,51,12.7c0-0.1,0.1-0.1,0.2-0.2c1.7,6.2,3.5,12.4,5.2,18.5C56.4,31.1,56.4,31.3,56.4,31.5z"/>
	</g>
</g>
</svg>
