<?xml version="1.0" encoding="utf-8"?>
<!-- Generator: Adobe Illustrator 19.1.0, SVG Export Plug-In . SVG Version: 6.00 Build 0)  -->
<svg version="1.1" id="レイヤー_1" xmlns="http://www.w3.org/2000/svg" xmlns:xlink="http://www.w3.org/1999/xlink" x="0px"
	 y="0px" viewBox="0 0 62 62" style="enable-background:new 0 0 62 62;" xml:space="preserve">
<style type="text/css">
	.st0{fill:#626F74;}
</style>
<g>
	<g>
		<path class="st0" d="M47.9,33c-0.1-7.8,6.4-11.6,6.7-11.8c-3.7-5.4-9.4-6.1-11.4-6.1c-4.8-0.5-9.4,2.9-11.9,2.9
			c-2.5,0-6.2-2.8-10.3-2.7c-5.2,0.1-10.1,3.1-12.7,7.8C2.9,32.4,7,46.4,12.3,54.2c2.6,3.8,5.7,8,9.8,7.8c3.9-0.2,5.4-2.5,10.2-2.5
			c4.7,0,6.1,2.5,10.2,2.4c4.2-0.1,6.9-3.8,9.5-7.6c3-4.3,4.3-8.6,4.3-8.8C56.1,45.5,48,42.4,47.9,33z"/>
		<path class="st0" d="M40.1,9.9c2.1-2.7,3.6-6.3,3.2-9.9c-3.1,0.1-6.9,2.1-9.1,4.7c-2,2.3-3.7,6-3.3,9.6
			C34.4,14.6,37.9,12.6,40.1,9.9z"/>
	</g>
</g>
</svg>
