<?xml version="1.0" encoding="utf-8"?>
<!-- Generator: Adobe Illustrator 19.1.0, SVG Export Plug-In . SVG Version: 6.00 Build 0)  -->
<svg version="1.1" xmlns="http://www.w3.org/2000/svg" xmlns:xlink="http://www.w3.org/1999/xlink" x="0px" y="0px"
	 viewBox="0 0 88 88" style="enable-background:new 0 0 88 88;" xml:space="preserve">
<style type="text/css">
	.st0{fill:#3080B7;}
	.st1{fill:#39B2D0;}
</style>
<g id="レイヤー_1">
</g>
<g id="レイヤー_2">
	<g>
		<g>
			<path class="st0" d="M15.5,73.5l-3.2-2.4c-1.1-0.8-2.6-4.6-1.7-5.7L42,29.9c1-1.4,3.1-1.3,4,0.1l20.2,26.2
				c0.4,0.7,1.2,1.1,2.1,1.1l11.7,0c1.4,0,1.3,1.2,1.3,2.6l0.3,2.7c0,1.4-1,3.5-2.3,3.5l-13.6,0c-0.8,0-1.9-0.4-2.3-1.1L45.6,41.9
				c-0.7-1.1-2.4-1.5-3.7-0.2L16.2,71.5C15.4,72.6,16.6,74.3,15.5,73.5z"/>
			<path class="st1" d="M41.4,62.3L25.6,46.7c-1.1-1.1-2.9-1.1-4,0L7.7,60.5c-1.2,1.1-1.2,1.1-2.3-0.1L3,57.8c-1.1-1.2-1-3,0.1-4.1
				l18.6-18.1c1.1-1.1,2.9-1,4,0l16.2,15.4c1.2,1.1,2.7,1.1,3.7,0.1l27-30.9c1.1-1.2,1.8-1.4,3-0.4l2.6,2.4c1.2,1.1,1.8,2.4,0.7,3.6
				L45.6,62.4C44.4,63.5,42.4,63.3,41.4,62.3z"/>
			<path class="st1" d="M44,8.9c19.4,0,35.1,15.7,35.1,35.1S63.4,79.1,44,79.1S8.9,63.4,8.9,44S24.6,8.9,44,8.9 M44,0
				C19.7,0,0,19.7,0,44s19.7,44,44,44c24.9-0.4,44.3-19.9,44-44C88,19.7,68.3,0,44,0L44,0z"/>
			<polygon class="st0" points="32.4,40.7 24.1,50 30.4,55.1 38.8,45.3 			"/>
		</g>
	</g>
</g>
</svg>
