<?xml version="1.0" encoding="utf-8"?>
<!-- Generator: Adobe Illustrator 19.1.0, SVG Export Plug-In . SVG Version: 6.00 Build 0)  -->
<svg version="1.1" id="レイヤー_1" xmlns="http://www.w3.org/2000/svg" xmlns:xlink="http://www.w3.org/1999/xlink" x="0px"
	 y="0px" viewBox="0 0 150 120" style="enable-background:new 0 0 150 120;" xml:space="preserve">
<style type="text/css">
	.st0{fill:#619BDB;}
	.st1{fill:none;}
</style>
<path class="st0" d="M66.1,75.2c1.1,1.1,2.5,1.6,4,1.6c1.5,0,2.9-0.6,4-1.6l23.9-24c1.8-1.8,3.1-5.1,3.1-7.7V31.9
	c0-3.1-2.3-5.9-5.4-5.9H84c-2.6,0-5.9,1.5-7.7,3.3l-24,24.1c-1.1,1.1-1.6,2.5-1.6,4c0,1.5,0.6,2.9,1.6,4L66.1,75.2z M54.9,56.1
	l24-24C80,31,82.5,30,84,30h11.6c1,0,1.4,0.8,1.4,1.9v11.6c0,1.6-0.8,4-1.9,5.1l-23.9,24c-0.7,0.7-1.9,0.7-2.6,0L54.9,58.8
	c-0.4-0.4-0.5-0.8-0.5-1.3C54.4,56.9,54.6,56.5,54.9,56.1z"/>
<path class="st0" d="M86.9,43.5c1,0,1.9-0.4,2.6-1c0.7-0.7,1.2-1.7,1.2-2.7c0-2.1-1.7-3.8-3.8-3.8c-2.1,0-3.8,1.7-3.8,3.8
	S84.8,43.5,86.9,43.5z"/>
<path class="st0" d="M143.1,11H60.6c-2.2,0-5.6-1.3-7.2-2.9L49.2,4c-2.3-2.3-6.6-4-9.9-4H6.9C3.1,0,0,3.1,0,6.9v86.2v20
	c0,3.8,3.1,6.9,6.9,6.9h136.2c3.8,0,6.9-3.1,6.9-6.9v-20v-75C150,14.3,146.9,11,143.1,11z M6.9,4h32.5c2.2,0,5.6,1.3,7.2,2.9
	l4.2,4.1c2.3,2.3,6.6,4,9.9,4h82.5c1.7,0,2.9,1.4,2.9,3.1V87c-1-0.5-1.7-1-2.9-1h-5.7c0.8-2,1.3-4.9,1.3-7.7c0-4.1-1.1-8.3-3.1-11.9
	c0-0.2-0.1-0.3-0.2-0.5c-0.5-0.9-1.6-1.2-2.5-0.7c0,0,0,0,0,0c0,0,0,0,0,0L117.8,74c-0.6,0.4-1.2,0.4-1.3,0.3
	c-0.1-0.1-0.5-0.5-0.5-1.2V55.6c0-1-0.7-1.9-1.8-1.9c-0.2,0-0.2,0-0.4,0.1C100.6,54.1,90,65,90,78.3c0,2.7,0.5,5.7,1.3,7.7H6.9
	C5.7,86,5,86.5,4,87V6.9C4,5.2,5.2,4,6.9,4z M95.3,86c-1-2-1.8-4.9-1.8-7.7c0-10.7,8.5-19.6,18.5-20.6v15.4c0,2,1.1,3.6,2.5,4.4
	c0.6,0.4,1.4,0.5,2.2,0.5c0.9,0,2-0.3,2.9-0.8l13.5-7.8c1.3,2.8,1.9,5.8,1.9,8.8c0,2.8-0.5,5.7-1.6,7.7H95.3z M147,112.9
	c0,1.7-1.4,3.1-3.1,3.1H7.1c-1.7,0-3.1-1.4-3.1-3.1V93.1C4,91.4,5.4,90,7.1,90h136.8c1.7,0,3.1,1.4,3.1,3.1V112.9z"/>
<path class="st0" d="M121.6,66.1c0.5,0.3,1,0.4,1.5,0.4c0.6,0,1.3-0.2,1.9-0.5l17.3-10c0.2-0.1,0.4-0.3,0.6-0.5c0,0,0.1-0.1,0.1-0.1
	c0-0.1,0.1-0.1,0.1-0.2c0-0.1,0-0.1,0.1-0.2c0-0.1,0-0.1,0.1-0.2c0-0.1,0-0.1,0-0.2c0-0.1,0-0.1,0-0.2c0,0,0-0.1,0-0.1
	c0-0.1,0-0.2,0-0.2c0,0,0,0,0-0.1c0-0.2-0.1-0.4-0.2-0.7c0,0,0,0,0,0c-4.4-7.5-12.4-12.2-21.1-12.2c-1,0-1.9,0.8-1.9,1.9v20
	C120,64.5,120.6,65.6,121.6,66.1z M138.9,53.7L124,62.4V45.1C130,45.7,135.5,48.8,138.9,53.7z"/>
<path class="st0" d="M28,50c1,0,2-0.8,2-1.9V35.6c0-1-1-1.9-2-1.9s-2,0.8-2,1.9v12.5C26,49.2,27,50,28,50z"/>
<path class="st0" d="M28.1,56.3c0.5,0,1-0.2,1.3-0.6c0.4-0.3,0.6-0.8,0.6-1.3c0-0.5-0.2-1-0.6-1.3c-0.7-0.7-1.9-0.7-2.7,0
	c-0.3,0.3-0.5,0.8-0.5,1.3c0,0.5,0.2,1,0.5,1.3C27.1,56.1,27.6,56.3,28.1,56.3z"/>
<path class="st0" d="M13.1,64h16.6c0.4,0,0.7,0,0.8,0.2c0.1,0.2,0.2,0.5,0,0.8l-0.6,1.8c-0.3,1-0.6,2.3,0.2,3.3
	c0.4,0.5,1,0.9,1.7,0.9c1.1,0,2-0.9,2.7-1.6l3-3.3c1-1.1,3.3-2.1,4.8-2.1h0.6c3.1,0,5.9-2.8,5.9-5.9V30v-3.8v-1.9
	c0-3.1-2.8-5.4-5.9-5.4h-30C10,19,7,21.3,7,24.4v1.9V30v28.1C7,61.2,10,64,13.1,64z M11,24.4c0-1,1.1-1.4,2.1-1.4h30
	c1,0,1.9,0.3,1.9,1.4V26H28.1c0.5,0,1-0.1,1.3-0.4c0.4-0.3,0.6-0.8,0.6-1.3c0-0.5-0.2-0.9-0.6-1.3c-0.7-0.7-2-0.7-2.7,0
	c-0.3,0.3-0.5,0.8-0.5,1.3c0,0.5,0.2,0.9,0.5,1.2c0.3,0.3,0.8,0.4,1.3,0.4H11V24.4z M45,30v28.1c0,1-0.8,1.9-1.9,1.9h-0.6
	c-2.6,0-5.9,1.5-7.6,3.5l-0.4,0.5c-0.1-0.8-0.4-1.5-0.8-2.1c-0.9-1.1-2.3-1.8-3.8-1.8H13.1c-1,0-2.1-0.8-2.1-1.9V30H45z"/>
<rect class="st1" width="120" height="120"/>
</svg>
