<?xml version="1.0" encoding="utf-8"?>
<!-- Generator: Adobe Illustrator 19.1.0, SVG Export Plug-In . SVG Version: 6.00 Build 0)  -->
<svg version="1.1" id="レイヤー_1" xmlns="http://www.w3.org/2000/svg" xmlns:xlink="http://www.w3.org/1999/xlink" x="0px"
	 y="0px" viewBox="0 0 62 62" style="enable-background:new 0 0 62 62;" xml:space="preserve">
<style type="text/css">
	.st0{fill:#626F74;}
</style>
<g>
	<path class="st0" d="M2.8,20.2c-0.3,0-0.6-0.1-0.9-0.2s-0.5-0.3-0.7-0.5s-0.4-0.4-0.5-0.7s-0.2-0.6-0.2-0.9s0.1-0.6,0.2-0.9
		s0.3-0.5,0.5-0.7s0.4-0.4,0.7-0.5s0.6-0.2,0.9-0.2s0.6,0.1,0.9,0.2s0.5,0.3,0.7,0.5s0.4,0.4,0.5,0.7s0.2,0.6,0.2,0.9
		S5,18.5,4.9,18.8s-0.3,0.5-0.5,0.7S4,19.9,3.7,20S3.1,20.2,2.8,20.2z M1,23.7h3.6v22.1H1V23.7z"/>
	<path class="st0" d="M22.6,15.8c2.1,0,4,0.4,5.7,1.1s3.1,1.7,4.3,3.1s2.1,2.9,2.7,4.8c0.6,1.9,1,4,1,6.4s-0.3,4.5-1,6.4
		c-0.6,1.9-1.5,3.5-2.7,4.8s-2.6,2.3-4.3,3s-3.6,1.1-5.7,1.1s-4-0.4-5.7-1.1s-3.1-1.7-4.3-3s-2.1-2.9-2.7-4.8s-1-4-1-6.4
		s0.3-4.5,1-6.4s1.5-3.5,2.7-4.8s2.6-2.3,4.3-3.1S20.5,15.8,22.6,15.8z M22.6,19.2c-1.5,0-2.9,0.3-4.1,0.8s-2.2,1.3-3.1,2.4
		s-1.5,2.3-2,3.8s-0.7,3.1-0.7,4.9s0.2,3.5,0.7,4.9s1.1,2.7,2,3.7s1.9,1.8,3.1,2.4s2.6,0.8,4.1,0.8s2.9-0.3,4.1-0.8s2.2-1.3,3.1-2.4
		c0.9-1,1.5-2.3,2-3.7c0.5-1.5,0.7-3.1,0.7-4.9s-0.2-3.5-0.7-4.9c-0.5-1.5-1.1-2.7-2-3.8c-0.9-1-1.9-1.8-3.1-2.4
		S24.1,19.2,22.6,19.2z"/>
	<path class="st0" d="M43.1,37.7c0.1,0.8,0.3,1.5,0.7,2.2s0.9,1.2,1.6,1.7s1.4,0.8,2.3,1.1s1.9,0.4,2.9,0.4c1,0,1.9-0.1,2.8-0.4
		s1.6-0.6,2.2-1s1.1-1,1.4-1.6s0.5-1.3,0.5-2c0-1.2-0.5-2.3-1.4-3.1s-2.4-1.5-4.3-2l-3.8-1c-1.4-0.3-2.5-0.8-3.5-1.2
		c-1-0.5-1.8-1-2.5-1.7s-1.1-1.4-1.4-2.2c-0.3-0.8-0.5-1.7-0.5-2.7c0-1.2,0.3-2.4,0.8-3.4c0.5-1,1.2-1.9,2.2-2.6
		c0.9-0.7,2-1.3,3.3-1.7c1.3-0.4,2.7-0.6,4.2-0.6c1.5,0,2.8,0.2,4.1,0.6s2.3,1,3.2,1.7s1.6,1.6,2.2,2.7c0.5,1,0.8,2.2,0.9,3.4h-3.7
		c-0.1-0.8-0.3-1.5-0.6-2.1c-0.3-0.6-0.8-1.2-1.4-1.6s-1.3-0.8-2.1-1s-1.7-0.4-2.6-0.4s-1.8,0.1-2.6,0.4c-0.8,0.2-1.5,0.6-2.1,1
		s-1,0.9-1.3,1.5s-0.5,1.3-0.5,2c0,0.6,0.1,1.1,0.3,1.5s0.5,0.9,1,1.2c0.5,0.4,1,0.7,1.8,1s1.6,0.6,2.6,0.9l3.1,0.8
		c1.5,0.4,2.8,0.8,3.9,1.3c1.1,0.5,2,1.1,2.7,1.7s1.2,1.4,1.5,2.2s0.5,1.8,0.5,2.9c0,1.4-0.3,2.6-0.8,3.7c-0.5,1.1-1.2,2-2.2,2.8
		c-1,0.8-2.1,1.3-3.5,1.8s-2.9,0.6-4.6,0.6c-1.6,0-3-0.2-4.3-0.6c-1.3-0.4-2.4-1-3.4-1.7s-1.7-1.7-2.3-2.7s-0.9-2.2-1-3.6H43.1z"/>
</g>
</svg>
