<?xml version="1.0" encoding="utf-8"?>
<!-- Generator: Adobe Illustrator 19.1.0, SVG Export Plug-In . SVG Version: 6.00 Build 0)  -->
<svg version="1.1" id="レイヤー_1" xmlns="http://www.w3.org/2000/svg" xmlns:xlink="http://www.w3.org/1999/xlink" x="0px"
	 y="0px" viewBox="0 0 62 62" style="enable-background:new 0 0 62 62;" xml:space="preserve">
<style type="text/css">
	.st0{fill:#626F73;}
	.st1{fill:none;}
</style>
<g>
	<g>
		<g>
			<path class="st0" d="M14.6,61.8c0,0.1-0.1,0.2-0.2,0.2H12c-0.3,0-0.5-0.1-0.7-0.3c-0.2-0.2-0.3-0.5-0.3-0.7v-6.3
				c0-0.3,0.1-0.5,0.3-0.7c0.2-0.2,0.5-0.3,0.7-0.3h2.4c0.1,0,0.2,0.1,0.2,0.2v0.6c0,0.1-0.1,0.2-0.2,0.2h-2.2
				c-0.1,0-0.2,0.1-0.2,0.2v5.9c0,0.1,0.1,0.2,0.2,0.2h2.2c0.1,0,0.2,0.1,0.2,0.2V61.8z"/>
			<path class="st0" d="M19.4,60.9c0,0.3-0.1,0.5-0.3,0.7c-0.2,0.2-0.5,0.3-0.7,0.3h-2.1c-0.3,0-0.5-0.1-0.7-0.3
				c-0.2-0.2-0.3-0.5-0.3-0.7v-6.3c0-0.3,0.1-0.5,0.3-0.7c0.2-0.2,0.5-0.3,0.7-0.3h2.1c0.3,0,0.5,0.1,0.7,0.3
				c0.2,0.2,0.3,0.5,0.3,0.7V60.9z M18.3,60.7v-5.9c0-0.1-0.1-0.2-0.2-0.2h-1.7c-0.1,0-0.2,0.1-0.2,0.2v5.9c0,0.1,0.1,0.2,0.2,0.2
				h1.7C18.2,60.9,18.3,60.8,18.3,60.7z"/>
			<path class="st0" d="M23.6,61.8c0,0.1-0.1,0.2-0.2,0.2h-2.4c-0.3,0-0.5-0.1-0.7-0.3c-0.2-0.2-0.3-0.5-0.3-0.7v-6.3
				c0-0.3,0.1-0.5,0.3-0.7c0.2-0.2,0.5-0.3,0.7-0.3h2.4c0.1,0,0.2,0.1,0.2,0.2v0.6c0,0.1-0.1,0.2-0.2,0.2h-2.2
				c-0.1,0-0.2,0.1-0.2,0.2v5.9c0,0.1,0.1,0.2,0.2,0.2h2.2c0.1,0,0.2,0.1,0.2,0.2V61.8z"/>
			<path class="st0" d="M28.3,60.9c0,0.3-0.1,0.5-0.3,0.7c-0.2,0.2-0.5,0.3-0.7,0.3h-2.1c-0.3,0-0.5-0.1-0.7-0.3
				c-0.2-0.2-0.3-0.5-0.3-0.7v-6.3c0-0.3,0.1-0.5,0.3-0.7c0.2-0.2,0.5-0.3,0.7-0.3h2.1c0.3,0,0.5,0.1,0.7,0.3
				c0.2,0.2,0.3,0.5,0.3,0.7V60.9z M27.2,60.7v-5.9c0-0.1-0.1-0.2-0.2-0.2h-1.7c-0.1,0-0.2,0.1-0.2,0.2v5.9c0,0.1,0.1,0.2,0.2,0.2
				H27C27.2,60.9,27.2,60.8,27.2,60.7z"/>
			<path class="st0" d="M33,60.9c0,0.3-0.1,0.5-0.3,0.7C32.5,61.9,32.3,62,32,62H29c-0.1,0-0.2-0.1-0.2-0.2v-0.6
				c0-0.1,0.1-0.2,0.2-0.2h2.7c0.1,0,0.2-0.1,0.2-0.2V58c0-0.1-0.1-0.2-0.2-0.2h-1.9c-0.3,0-0.5-0.1-0.7-0.3
				c-0.2-0.2-0.3-0.5-0.3-0.7v-2.1c0-0.3,0.1-0.5,0.3-0.7c0.2-0.2,0.5-0.3,0.7-0.3h2.9c0.1,0,0.2,0.1,0.2,0.2v0.6
				c0,0.1-0.1,0.2-0.2,0.2h-2.7c-0.1,0-0.2,0.1-0.2,0.2v1.7c0,0.1,0.1,0.2,0.2,0.2H32c0.3,0,0.5,0.1,0.7,0.3
				c0.2,0.2,0.3,0.5,0.3,0.7V60.9z"/>
		</g>
		<g>
			<path class="st0" d="M38.6,61.8c0,0.1-0.1,0.2-0.2,0.2h-2.9c-0.3,0-0.5-0.1-0.7-0.3c-0.2-0.2-0.3-0.5-0.3-0.7v-3.2
				c0-0.3,0.1-0.5,0.3-0.7c0.2-0.2,0.5-0.3,0.7-0.3h1.9c0.1,0,0.2-0.1,0.2-0.2v-1.7c0-0.1-0.1-0.2-0.2-0.2h-2.7
				c-0.1,0-0.2-0.1-0.2-0.2v-0.6c0-0.1,0.1-0.2,0.2-0.2h2.9c0.3,0,0.5,0.1,0.7,0.3c0.2,0.2,0.3,0.5,0.3,0.7v2.1
				c0,0.3-0.1,0.5-0.3,0.7c-0.2,0.2-0.5,0.3-0.7,0.3h-1.9c-0.1,0-0.2,0.1-0.2,0.2v2.7c0,0.1,0.1,0.2,0.2,0.2h2.7
				c0.1,0,0.2,0.1,0.2,0.2V61.8z"/>
			<path class="st0" d="M43.3,60.9c0,0.3-0.1,0.5-0.3,0.7c-0.2,0.2-0.5,0.3-0.7,0.3h-2.9c-0.1,0-0.2-0.1-0.2-0.2v-8
				c0-0.1,0.1-0.2,0.2-0.2h2.9c0.3,0,0.5,0.1,0.7,0.3c0.2,0.2,0.3,0.5,0.3,0.7V60.9z M42.3,60.7v-5.9c0-0.1-0.1-0.2-0.2-0.2h-1.9
				v6.3h1.9C42.2,60.9,42.3,60.8,42.3,60.7z"/>
		</g>
		<path class="st0" d="M50.7,53.8c-0.2-0.2-0.5-0.3-0.7-0.3h-5.1c-0.3,0-0.5,0.1-0.7,0.3c-0.2,0.2-0.3,0.5-0.3,0.7v6.3
			c0,0.3,0.1,0.5,0.3,0.7c0.2,0.2,0.5,0.3,0.7,0.3H50c0.3,0,0.5-0.1,0.7-0.3c0.2-0.2,0.3-0.5,0.3-0.7v-6.3
			C51.1,54.3,50.9,54,50.7,53.8z M49.4,55.6c0,0.1,0,0.2-0.1,0.3L48,57.7l1.3,1.8c0.1,0.1,0.1,0.2,0.1,0.3v0.3
			c0,0.1-0.1,0.2-0.2,0.2H49c-0.1,0-0.2-0.1-0.3-0.1l-1.3-1.7l-1.3,1.7c-0.1,0.1-0.2,0.1-0.3,0.1h-0.2c-0.1,0-0.2-0.1-0.2-0.2v-0.3
			c0-0.1,0-0.2,0.1-0.3l1.3-1.8l-1.3-1.8c-0.1-0.1-0.1-0.2-0.1-0.3v-0.2c0-0.1,0.1-0.2,0.2-0.2l0.3,0c0.1,0,0.2,0.1,0.3,0.1l1.2,1.7
			l1.2-1.7c0.1-0.1,0.2-0.1,0.3-0.1l0.3,0c0.1,0,0.2,0.1,0.2,0.2V55.6z"/>
	</g>
	<g>
		<g>
			<path class="st1" d="M30.9,46.6c-2.7,0-5.5-0.8-7.8-2.4c-2.2-1.2-9.1-6.1-9-20.6l0-2.6l1.4,2.1l0.6,0.9c1-4.8,3.8-11.5,11.3-17.7
				l1.3-1.1l-0.4-1.7l-0.5-1.9l1.7,1c0.4,0.2,8.4,5.4,13.2,14.3l0.1-0.2l0.7-2.3l0.8,2.2c2.8,7.4,2.3,13.2,1.6,16.6l0.7-0.2l1.8-0.5
				l-0.8,1.6c-4.4,8.5-9.8,10.9-11.9,11.5c-1.4,0.5-2.8,0.7-4.2,0.8C31.1,46.6,31,46.6,30.9,46.6L30.9,46.6z M28.8,6.4L29,6.5
				l-0.1-0.3L28.8,6.4L28.8,6.4z"/>
			<path class="st0" d="M29.1,3.4c0,0,9.2,5.9,13.8,15.8l0.6-2.1c3.1,8.2,2.2,14.3,1.2,17.4l2-0.6c-4.3,8.2-9.4,10.5-11.4,11.1
				c-1.3,0.4-2.6,0.7-4,0.7c-0.1,0-0.2,0-0.3,0c-2.7,0-5.2-0.8-7.4-2.3c-1.9-1-8.7-5.7-8.7-19.9l1.7,2.5c0-0.3,0.1-0.6,0.2-0.9
				C17.4,20.6,20,13.5,27.9,7l-1.1,4.7l2.2-4l1.5,1.6L29.1,3.4 M26.6,0l0.9,3.8L27.8,5l-0.9,0.8c-6.8,5.6-9.8,11.6-11.1,16.4
				l-2.4-3.6l0,5.1c-0.1,14.8,7.1,20,9.4,21.3c2.5,1.6,5.3,2.5,8.2,2.5c0.1,0,0.2,0,0.4,0c1.5,0,3-0.3,4.5-0.8
				c1.3-0.4,3.2-1.2,5.4-3c2.7-2.2,5-5.2,7-8.9l1.7-3.3l-3,0.8c0.2-1.5,0.4-3,0.3-4.6c0-3.6-0.8-7.3-2.2-11.1l-1.7-4.4l-0.9,3
				c-2.3-3.7-5-6.6-7.1-8.6c-3-2.8-5.3-4.3-5.4-4.4L26.6,0L26.6,0z"/>
		</g>
		<path class="st0" d="M21,23.2c0,0,0.7-3.8,3-5.9c0,0,0.1,3,0.6,4.4c0,0-1.1-1.3-1.3-1.9C23.3,19.7,22.1,20.6,21,23.2z"/>
		<path class="st0" d="M29.4,16.2c0,0,1.1-3,1-4c0,0,1.8,1.4,2.6,4c0,0-1.2-1.4-2-1.9C31,14.3,30.1,15.8,29.4,16.2z"/>
		<path class="st0" d="M29.6,33.1c-0.7-3-3.3-4.9-5.8-4.3c-2.5,0.6-4,3.5-3.3,6.5c0.7,3,3.3,4.9,5.8,4.3
			C28.8,39,30.3,36.1,29.6,33.1z M26.3,36.7c-0.7,0.1-1.4-0.5-1.4-1.2c-0.1-0.7,0.5-1.4,1.2-1.4c0.7-0.1,1.4,0.5,1.4,1.2
			C27.5,36,27,36.6,26.3,36.7z"/>
		<path class="st0" d="M38.9,28.8c-2.5-0.6-5.1,1.3-5.8,4.3c-0.7,3,0.8,5.9,3.3,6.5c2.5,0.6,5.1-1.3,5.8-4.3
			C42.8,32.3,41.4,29.4,38.9,28.8z M37.8,35.5c-0.1,0.7-0.7,1.3-1.4,1.2c-0.7-0.1-1.3-0.7-1.2-1.4c0.1-0.7,0.7-1.3,1.4-1.2
			C37.3,34.2,37.8,34.8,37.8,35.5z"/>
		<path class="st0" d="M30,26.6c0,0-0.3-3.8,1.4-6.5c0,0,0.9,2.9,1.7,4c0,0-1.4-0.9-1.7-1.5C31.4,22.7,30.4,23.8,30,26.6z"/>
		<path class="st0" d="M14.8,23.6c0,0,2,3.3,3.3,4.4c0,0-1.8-3-2.3-4.5L14.8,23.6z"/>
	</g>
	<path class="st0" d="M43.5,17.1c0,0-0.3,2.5-1.7,4.1c0,0,1-2.9,1-3.9L43.5,17.1z"/>
	<polygon class="st0" points="46.7,33.9 43.4,34.9 45.7,33.5 	"/>
</g>
</svg>
