<?xml version="1.0" encoding="utf-8"?>
<!-- Generator: Adobe Illustrator 19.1.0, SVG Export Plug-In . SVG Version: 6.00 Build 0)  -->
<svg version="1.1" id="レイヤー_1" xmlns="http://www.w3.org/2000/svg" xmlns:xlink="http://www.w3.org/1999/xlink" x="0px"
	 y="0px" viewBox="0 0 283.5 283.5" style="enable-background:new 0 0 283.5 283.5;" xml:space="preserve">
<style type="text/css">
	.st0{fill:#619BDB;}
</style>
<path class="st0" d="M66.2,135.8"/>
<g>
	<path class="st0" d="M141.9,281c-1.4,0-2.9-0.1-4.4-0.2l-0.8-0.1l-0.4-0.8c-0.7-1.4-1.3-3-1.9-4.6c-0.4-1-0.8-2.1-1.2-3.1
		c-2.8-0.8-5.5-1.9-8.1-3.4c-1.1,0.4-2.2,0.9-3.3,1.4c-1.4,0.6-2.9,1.3-4.3,1.8l-0.8,0.3l-0.7-0.5c-2.2-1.8-4.3-3.8-6.1-6.1
		l-0.5-0.7l0.3-0.8c0.5-1.4,1.2-2.9,1.8-4.3c0.5-1.1,1-2.2,1.4-3.3c-1.5-2.5-2.6-5.2-3.4-8.1c-1-0.4-2-0.8-3.1-1.2
		c-1.6-0.6-3.2-1.2-4.6-1.9l-0.8-0.4l-0.1-0.8c-0.2-1.5-0.2-3-0.2-4.4c0-1.4,0.1-2.9,0.2-4.4l0.1-0.8l0.8-0.4c1.4-0.7,3-1.3,4.6-1.9
		c1-0.4,2.1-0.8,3.1-1.2c0.8-2.8,1.9-5.5,3.4-8.1c-0.4-1.1-0.9-2.2-1.4-3.3c-0.6-1.4-1.3-2.9-1.8-4.3l-0.3-0.8l0.5-0.7
		c1.8-2.2,3.8-4.3,6.1-6.1l0.7-0.5l0.8,0.3c1.4,0.5,2.9,1.2,4.3,1.8c1.1,0.5,2.2,1,3.3,1.4c2.5-1.5,5.2-2.6,8.1-3.4
		c0.4-1,0.8-2,1.2-3.1c0.6-1.6,1.2-3.2,1.9-4.6l0.4-0.8l0.8-0.1c3-0.3,5.9-0.3,8.8,0l0.8,0.1l0.4,0.8c0.7,1.4,1.3,3,1.9,4.6
		c0.4,1,0.8,2.1,1.2,3.1c2.8,0.8,5.5,1.9,8.1,3.4c1.1-0.4,2.2-0.9,3.3-1.4c1.4-0.6,2.9-1.3,4.3-1.8l0.8-0.3l0.7,0.5
		c2.2,1.8,4.3,3.8,6.1,6.1l0.5,0.7l-0.3,0.8c-0.5,1.4-1.2,2.9-1.8,4.3c-0.5,1.1-1,2.2-1.4,3.3c1.5,2.5,2.6,5.2,3.4,8.1
		c1,0.4,2,0.8,3.1,1.2c1.6,0.6,3.2,1.2,4.6,1.9l0.8,0.4l0.1,0.8c0.2,1.5,0.2,3,0.2,4.4c0,1.4-0.1,2.9-0.2,4.4l-0.1,0.8l-0.8,0.4
		c-1.4,0.7-3,1.3-4.6,1.9c-1,0.4-2.1,0.8-3.1,1.2c-0.8,2.8-1.9,5.5-3.4,8.1c0.4,1.1,0.9,2.2,1.4,3.3c0.6,1.4,1.3,2.9,1.8,4.3
		l0.3,0.8l-0.5,0.7c-1.8,2.2-3.8,4.3-6.1,6.1l-0.7,0.5l-0.8-0.3c-1.4-0.5-2.9-1.2-4.3-1.8c-1.1-0.5-2.2-1-3.3-1.4
		c-2.5,1.5-5.2,2.6-8.1,3.4c-0.4,1-0.8,2-1.2,3.1c-0.6,1.6-1.2,3.2-1.9,4.6l-0.4,0.8l-0.8,0.1C144.8,280.9,143.3,281,141.9,281z
		 M138.6,277.9c2.2,0.2,4.3,0.2,6.5,0c0.5-1.1,1-2.4,1.4-3.6c0.5-1.3,1-2.7,1.6-3.9l0.3-0.7l0.7-0.2c3-0.7,5.9-1.9,8.6-3.6l0.6-0.4
		l0.7,0.3c1.3,0.5,2.7,1.1,4.1,1.7c1.1,0.5,2.3,1,3.3,1.4c1.6-1.3,3.1-2.8,4.4-4.4c-0.4-1.1-0.9-2.2-1.4-3.3
		c-0.6-1.4-1.2-2.8-1.7-4.1l-0.3-0.7l0.4-0.6c1.6-2.7,2.8-5.6,3.6-8.6l0.2-0.7l0.7-0.3c1.2-0.5,2.6-1.1,3.9-1.6
		c1.2-0.5,2.5-0.9,3.6-1.4c0.1-1.1,0.1-2.2,0.1-3.2c0-1.1,0-2.1-0.1-3.2c-1.1-0.5-2.4-1-3.6-1.4c-1.3-0.5-2.7-1-3.9-1.6l-0.7-0.3
		l-0.2-0.7c-0.7-3-1.9-5.9-3.6-8.6l-0.4-0.6l0.3-0.7c0.5-1.3,1.1-2.7,1.7-4.1c0.5-1.1,1-2.3,1.4-3.3c-1.3-1.6-2.8-3.1-4.4-4.4
		c-1.1,0.4-2.2,0.9-3.3,1.4c-1.4,0.6-2.8,1.2-4.1,1.7l-0.7,0.3l-0.6-0.4c-2.7-1.6-5.6-2.8-8.6-3.6l-0.7-0.2l-0.3-0.7
		c-0.5-1.2-1.1-2.6-1.6-3.9c-0.5-1.2-0.9-2.5-1.4-3.6c-2.2-0.2-4.3-0.2-6.5,0c-0.5,1.1-1,2.4-1.4,3.6c-0.5,1.3-1,2.7-1.6,3.9
		l-0.3,0.7l-0.7,0.2c-3,0.7-5.9,1.9-8.6,3.6l-0.6,0.4l-0.7-0.3c-1.3-0.5-2.7-1.1-4.1-1.7c-1.1-0.5-2.3-1-3.3-1.4
		c-1.6,1.3-3.1,2.8-4.4,4.4c0.4,1.1,0.9,2.2,1.4,3.3c0.6,1.4,1.2,2.8,1.7,4.1l0.3,0.7l-0.4,0.6c-1.6,2.7-2.8,5.6-3.6,8.6l-0.2,0.7
		l-0.7,0.3c-1.2,0.5-2.6,1.1-3.9,1.6c-1.2,0.5-2.5,0.9-3.6,1.4c-0.1,1.1-0.1,2.2-0.1,3.2c0,1.1,0,2.1,0.1,3.2c1.1,0.5,2.4,1,3.6,1.4
		c1.3,0.5,2.7,1,3.9,1.6l0.7,0.3l0.2,0.7c0.7,3,1.9,5.9,3.6,8.6l0.4,0.6l-0.3,0.7c-0.5,1.3-1.1,2.7-1.7,4.1c-0.5,1.1-1,2.3-1.4,3.3
		c1.3,1.6,2.8,3.1,4.4,4.4c1.1-0.4,2.2-0.9,3.3-1.4c1.4-0.6,2.8-1.2,4.1-1.7l0.7-0.3l0.6,0.4c2.7,1.6,5.6,2.8,8.6,3.6l0.7,0.2
		l0.3,0.7c0.5,1.2,1.1,2.6,1.6,3.9C137.6,275.5,138.1,276.7,138.6,277.9z"/>
	<path class="st0" d="M141.9,283.5c-1.5,0-3.1-0.1-4.7-0.3l-2.3-0.2l-1-2.1c-0.7-1.5-1.3-3.1-1.9-4.7c-0.3-0.7-0.5-1.3-0.8-2
		c-2.2-0.7-4.3-1.6-6.4-2.6c-0.7,0.3-1.4,0.6-2.1,0.9c-1.5,0.7-3,1.3-4.4,1.9l-2.1,0.8l-1.8-1.4c-2.4-1.9-4.5-4.1-6.4-6.4l-1.4-1.8
		l0.8-2.1c0.5-1.4,1.2-2.9,1.9-4.4c0.3-0.7,0.6-1.4,0.9-2.1c-1.1-2-2-4.2-2.6-6.4c-0.6-0.2-1.3-0.5-1.9-0.7
		c-1.6-0.6-3.2-1.2-4.7-1.9l-2.1-1l-0.2-2.3c-0.2-1.6-0.3-3.1-0.3-4.7s0.1-3.1,0.3-4.7l0.2-2.3l2.1-1c1.5-0.7,3.1-1.3,4.7-1.9
		c0.7-0.3,1.3-0.5,2-0.8c0.7-2.2,1.6-4.3,2.6-6.4c-0.3-0.7-0.6-1.4-0.9-2.1c-0.7-1.5-1.3-3-1.9-4.4l-0.8-2.1l1.4-1.8
		c1.9-2.4,4.1-4.5,6.4-6.4l1.8-1.4l2.1,0.8c1.4,0.5,2.9,1.2,4.4,1.9c0.7,0.3,1.4,0.6,2.1,0.9c2-1.1,4.2-2,6.4-2.6
		c0.2-0.6,0.5-1.3,0.7-1.9c0.6-1.6,1.2-3.2,1.9-4.7l1-2.1l2.3-0.2c3.1-0.3,6.2-0.3,9.4,0l2.3,0.2l1,2.1c0.7,1.5,1.3,3.1,1.9,4.7
		c0.3,0.7,0.5,1.3,0.8,2c2.2,0.7,4.3,1.6,6.4,2.6c0.7-0.3,1.4-0.6,2.1-0.9c1.5-0.7,3-1.3,4.4-1.9l2.1-0.8l1.8,1.4
		c2.4,1.9,4.5,4.1,6.4,6.4l1.4,1.8l-0.8,2.1c-0.5,1.4-1.2,2.9-1.9,4.4c-0.3,0.7-0.6,1.4-0.9,2.1c1.1,2,2,4.2,2.6,6.4
		c0.6,0.2,1.3,0.5,1.9,0.7c1.6,0.6,3.3,1.2,4.7,1.9l2.1,1l0.2,2.3c0.2,1.6,0.3,3.1,0.3,4.7s-0.1,3.1-0.3,4.7l-0.2,2.3l-2.1,1
		c-1.5,0.7-3.1,1.3-4.7,1.9c-0.7,0.3-1.3,0.5-2,0.8c-0.7,2.2-1.6,4.3-2.6,6.4c0.3,0.7,0.6,1.4,0.9,2.1c0.7,1.5,1.3,3,1.9,4.4
		l0.8,2.1l-1.4,1.8c-1.9,2.4-4.1,4.5-6.4,6.4l-1.8,1.4l-2.1-0.8c-1.4-0.5-2.9-1.2-4.4-1.9c-0.7-0.3-1.4-0.6-2.1-0.9
		c-2,1.1-4.2,2-6.4,2.6c-0.2,0.6-0.5,1.3-0.7,1.9c-0.6,1.6-1.2,3.2-1.9,4.7l-1,2.1l-2.3,0.2C145,283.4,143.4,283.5,141.9,283.5z
		 M140.3,275.5c1,0,2,0,3,0c0.3-0.7,0.5-1.4,0.8-2.1c0.5-1.4,1-2.7,1.6-4l0.8-1.8l1.9-0.5c2.8-0.7,5.4-1.8,7.9-3.3l1.7-1l1.8,0.7
		c1.4,0.5,2.8,1.2,4.2,1.8c0.6,0.3,1.2,0.5,1.8,0.8c0.7-0.6,1.3-1.3,2-2c-0.3-0.6-0.5-1.2-0.8-1.8c-0.6-1.4-1.3-2.8-1.8-4.2
		l-0.7-1.8l1-1.7c1.5-2.4,2.6-5.1,3.3-7.9l0.5-1.9l1.8-0.8c1.3-0.6,2.7-1.1,4-1.6c0.7-0.3,1.4-0.5,2.1-0.8c0-0.5,0-1,0-1.5
		s0-1,0-1.5c-0.7-0.3-1.4-0.5-2.1-0.8c-1.3-0.5-2.7-1-4-1.6l-1.8-0.8l-0.5-1.9c-0.7-2.8-1.8-5.4-3.3-7.9l-1-1.7l0.7-1.8
		c0.5-1.4,1.2-2.8,1.8-4.2c0.3-0.6,0.5-1.2,0.8-1.8c-0.6-0.7-1.3-1.3-2-2c-0.6,0.3-1.2,0.5-1.8,0.8c-1.4,0.6-2.8,1.3-4.2,1.8
		l-1.8,0.7l-1.7-1c-2.4-1.5-5.1-2.6-7.9-3.3l-1.9-0.5l-0.8-1.8c-0.6-1.3-1.1-2.7-1.6-4c-0.3-0.7-0.5-1.4-0.8-2.1c-1,0-2,0-3,0
		c-0.3,0.7-0.5,1.4-0.8,2.1c-0.5,1.4-1,2.7-1.6,4l-0.8,1.8l-1.9,0.5c-2.8,0.7-5.4,1.8-7.9,3.3l-1.7,1l-1.8-0.7
		c-1.4-0.5-2.8-1.2-4.2-1.8c-0.6-0.3-1.2-0.5-1.8-0.8c-0.7,0.6-1.3,1.3-2,2c0.3,0.6,0.5,1.2,0.8,1.8c0.6,1.4,1.3,2.8,1.8,4.2
		l0.7,1.8l-1,1.7c-1.5,2.4-2.6,5.1-3.3,7.9l-0.5,1.9l-1.8,0.8c-1.3,0.6-2.7,1.1-4,1.6c-0.7,0.3-1.4,0.5-2.1,0.8c0,0.5,0,1,0,1.5
		s0,1,0,1.5c0.7,0.3,1.4,0.5,2.1,0.8c1.4,0.5,2.7,1,4,1.6l1.8,0.8l0.5,1.9c0.7,2.8,1.8,5.4,3.3,7.9l1,1.7l-0.7,1.8
		c-0.5,1.4-1.2,2.8-1.8,4.2c-0.3,0.6-0.5,1.2-0.8,1.8c0.6,0.7,1.3,1.3,2,2c0.6-0.3,1.2-0.5,1.8-0.8c1.4-0.6,2.8-1.3,4.2-1.8l1.8-0.7
		l1.7,1c2.4,1.5,5.1,2.6,7.9,3.3l1.9,0.5l0.8,1.8c0.6,1.3,1.1,2.7,1.6,4C139.8,274.1,140.1,274.8,140.3,275.5z"/>
</g>
<g>
	<path class="st0" d="M141.9,254.7c-8.1,0-14.7-6.6-14.7-14.7s6.6-14.7,14.7-14.7s14.7,6.6,14.7,14.7S149.9,254.7,141.9,254.7z
		 M141.9,228.3c-6.4,0-11.7,5.2-11.7,11.7s5.2,11.7,11.7,11.7s11.7-5.2,11.7-11.7S148.3,228.3,141.9,228.3z"/>
	<path class="st0" d="M141.9,257.2c-9.5,0-17.2-7.7-17.2-17.2s7.7-17.2,17.2-17.2S159,230.5,159,240S151.3,257.2,141.9,257.2z
		 M141.9,230.8c-5.1,0-9.2,4.1-9.2,9.2s4.1,9.2,9.2,9.2s9.2-4.1,9.2-9.2S146.9,230.8,141.9,230.8z"/>
</g>
<g>
	<path class="st0" d="M171.6,187.9h-66l0.6-5.1c0.6-4.5,0.6-4.5,0.6-13.2c0-21.8,3.9-34.6,14.2-47.3c7.7-8.9,10.3-10.9,32-24.1
		c14.7-8.7,17.3-13.9,17.3-21.1c0-6.7-3.1-18-24-18c-11.9,0-20.4,4-25.3,12c-2.6,4.2-3.6,7.7-4.8,16.5l-0.6,4.3L45,85.4l0.6-4.7
		c3.1-22.5,8.4-35.2,20.3-48.3C84.3,11.6,111.9,1,147.9,1c28,0,51.7,6.6,68.3,19.1c17,12.8,25.9,31.1,25.9,52.9
		c0,19.4-6.6,34.9-20,47.4c-7.6,6.9-11,9.3-37,25.4c-11.3,7.3-15,13.6-15,25.9c0,3.5,0.3,6.8,0.9,11.1L171.6,187.9z M115.7,178.9
		h45.8c-0.2-2.5-0.4-4.8-0.4-7.2c0-15.4,5.2-24.5,19.2-33.5c26.4-16.4,28.9-18.2,35.7-24.4c11.7-10.9,17.1-23.8,17.1-40.8
		c0-38.9-32.6-63-85.2-63c-33.3,0-58.6,9.6-75.2,28.5c-9.8,10.9-14.5,21.1-17.4,38.9l52.8,4.9c1.2-7.2,2.6-11.3,5.4-15.8
		c6.5-10.6,17.9-16.2,32.9-16.2c20.4,0,33,10.3,33,27c0,13.3-8,20.6-21.7,28.8c-20.7,12.6-23,14.2-29.8,22.2
		c-8.9,10.9-12.1,21.8-12.1,41.5C115.8,174.5,115.8,176.9,115.7,178.9z"/>
</g>
</svg>
