<?xml version="1.0" encoding="utf-8"?>
<!-- Generator: Adobe Illustrator 19.1.0, SVG Export Plug-In . SVG Version: 6.00 Build 0)  -->
<svg version="1.1" id="レイヤー_1" xmlns="http://www.w3.org/2000/svg" xmlns:xlink="http://www.w3.org/1999/xlink" x="0px"
	 y="0px" viewBox="0 0 62 62" style="enable-background:new 0 0 62 62;" xml:space="preserve">
<style type="text/css">
	.st0{fill:#626F74;enable-background:new    ;}
	.st1{fill:#FFFFFF;enable-background:new    ;}
	.st2{opacity:0.2;}
	.st3{fill:#626F74;}
</style>
<g>
	<path class="st0" d="M3.8,0.1l5,55.7L31,61.9l22.3-6.2l5-55.7H3.8z M31,43L31,43l7.6-2.1l0.8-8.9H31L31,43z"/>
	<path class="st1" d="M3.8,0.1l5,55.7L31,61.9l22.3-6.2l5-55.7H3.8z M17,46.2l-1-11h6.9l0.5,5.7L31,43l0,0v0l7.6-2.1l0.8-8.9H31h0
		H15.7l-1.8-20.6H31h17.1l-0.6,6.8H31h-9.6l0.6,7h9v0h15.9l-1.9,21l-14,3.9l0,0L17,46.2z"/>
	<path class="st0" d="M53.4,4.5l-4.3,47.8l-18.2,5l-18.2-5L8.6,4.5H53.4 M58.2,0.1H3.8l5,55.7L31,61.9l22.3-6.2L58.2,0.1L58.2,0.1z"
		/>
	<g class="st2">
		<polygon class="st3" points="31,11.5 13.9,11.5 15.7,32.1 31,32.1 31,25.3 22,25.3 21.4,18.3 31,18.3 		"/>
		<polygon class="st3" points="31,43 31,43 23.4,41 22.9,35.3 16,35.3 17,46.2 31,50.1 31,50.1 		"/>
	</g>
</g>
</svg>
