<?xml version="1.0" encoding="utf-8"?>
<!-- Generator: Adobe Illustrator 19.1.0, SVG Export Plug-In . SVG Version: 6.00 Build 0)  -->
<svg version="1.1" xmlns="http://www.w3.org/2000/svg" xmlns:xlink="http://www.w3.org/1999/xlink" x="0px" y="0px"
	 viewBox="0 0 92 82" style="enable-background:new 0 0 92 82;" xml:space="preserve">
<style type="text/css">
	.st0{clip-path:url(#SVGID_2_);}
	.st1{fill:#619BDB;}
</style>
<g id="レイヤー_1">
</g>
<g id="レイヤー_2">
	<g id="fIcon21Onesdk">
		<defs>
			<rect id="SVGID_1_" x="-13.5" y="-19.4" width="120.8" height="120.8"/>
		</defs>
		<clipPath id="SVGID_2_">
			<use xlink:href="#SVGID_1_"  style="overflow:visible;"/>
		</clipPath>
		<g class="st0">
			<path class="st1" d="M40.8,43.5c-1.1,0-2.1-0.4-2.9-1.2L24.8,29.2c-0.4-0.4-1.1-0.4-1.5,0l-0.9,0.9c-0.9,0.9-2.2,2.6-2.9,3.7
				l-1.1,2c-0.8,1.3-2.3,3.3-3.4,4.4l-0.7,0.7c-0.8,0.8-1.8,1.2-2.9,1.2s-2.1-0.4-2.9-1.2l-7.3-7.3c-1.6-1.6-1.6-4.2,0-5.8L2,27.1
				c1.1-1.1,3-2.6,4.4-3.4l2-1.1c0.5-0.3,0.8-0.5,0.9-0.7c-0.3-1.6,1.4-3.5,1.8-3.9L25.6,3.5c1.3-1.3,3.7-2.2,5.5-2.1L50,2.4
				c1.8,0.1,2.4,1.2,2.6,1.6c0.2,0.4,0.4,1.6-0.9,2.9l-0.9,0.9c-1.2,1.2-3.4,2.4-5,2.9l-3.5,0.9c-1.1,0.3-2.8,1.3-3.6,2.1l-3.9,3.9
				c-0.4,0.4-0.4,1.1,0,1.5l13.1,13.1c1.6,1.6,1.6,4.2,0,5.8l-4.2,4.2C42.9,43.1,41.9,43.5,40.8,43.5z M24.1,25.9
				c1.1,0,2.1,0.4,2.9,1.2l13.1,13.1c0.4,0.4,1.1,0.4,1.5,0l4.2-4.2c0.4-0.4,0.4-1.1,0-1.5L32.7,21.3c-1.6-1.6-1.6-4.2,0-5.8
				l3.9-3.9c1.2-1.2,3.4-2.4,5-2.9l3.5-0.9c1.1-0.3,2.8-1.3,3.6-2.1l0.3-0.3l-18.2-1c-1,0-2.5,0.6-3.1,1.2L13.2,20.1
				c-0.5,0.5-0.8,1-0.9,1.3c0.1,0.4,0.1,0.7,0,1.1c-0.4,1.3-1.8,2.3-2.5,2.7l-2,1.1c-1.1,0.6-2.8,2-3.7,2.9l-0.7,0.7
				C3,30.3,3,31,3.4,31.4l7.3,7.3c0.4,0.4,1.1,0.4,1.5,0L13,38c0.9-0.9,2.2-2.6,2.9-3.7l1.1-2c0.8-1.3,2.3-3.3,3.3-4.4l0.9-0.9
				C22,26.3,23,25.9,24.1,25.9z"/>
			<path class="st1" d="M77.5,81.9L77.5,81.9c-1.1,0-2.2-0.5-2.9-1.3L55.4,59.9c-1-1-2.6-2.7-3.5-3.7l-2.4-2.4
				c-0.8-0.8-1.2-1.8-1.2-2.9c0-1.1,0.4-2.1,1.2-2.9l4.2-4.2c0.8-0.8,1.8-1.2,2.9-1.2c1.1,0,2.1,0.4,2.9,1.2l2.4,2.4
				c1,1,2.7,2.6,3.7,3.5L86.2,69c0.8,0.7,1.3,1.8,1.3,2.9c0,1.1-0.4,2.1-1.2,2.9l-6,6C79.6,81.4,78.6,81.9,77.5,81.9z M56.6,45.6
				c-0.3,0-0.6,0.1-0.8,0.3l-4.2,4.2c-0.2,0.2-0.3,0.5-0.3,0.8c0,0.3,0.1,0.6,0.3,0.8l2.4,2.4c1,1,2.6,2.7,3.6,3.7l19.2,20.7
				c0.4,0.4,1,0.4,1.4,0l6-6c0.2-0.2,0.3-0.4,0.3-0.7c0-0.3-0.1-0.5-0.3-0.7L63.5,51.9c-1-1-2.7-2.6-3.8-3.6l-2.4-2.4
				C57.1,45.7,56.9,45.6,56.6,45.6z"/>
			<path class="st1" d="M19.9,81.7C19.9,81.7,19.9,81.7,19.9,81.7c-1.1,0-2.1-0.4-2.8-1.2l-6-6c-0.8-0.8-1.2-1.8-1.2-2.9
				c0-1.1,0.5-2.1,1.3-2.9l20.7-19.2c1-0.9,2.7-2.5,3.7-3.5l18.9-18.9c1.3-1.3,1.3-2.2,1.1-2.8c-0.5-1.2-4.1-10.8,4-18.9
				c4.3-4.3,9.2-5.2,12.5-5.2c2.2,0,3.7,0.4,3.7,0.4C77.4,1.1,78,2,78.1,2.6c0.1,0.5,0.2,1.5-0.9,2.5l-5.1,5.1
				c-2.5,2.5-2.5,6.7,0,9.2c1.2,1.2,2.9,1.9,4.6,1.9c1.7,0,3.4-0.7,4.6-1.9l5.1-5.1c0.6-0.6,1.3-0.9,2-0.9c0.6,0,1.9,0.2,2.5,2.4
				c0.1,0.4,2.3,9.2-4.8,16.3c-3.4,3.4-7.7,5.3-12.3,5.3c-3.5,0-6.1-1-6.6-1.3c-0.9-0.3-1.8,0.1-2.8,1.1L45.6,56.1
				c-1,1-2.6,2.6-3.5,3.7L22.8,80.5C22.1,81.3,21,81.7,19.9,81.7z M72.1,3.3c-2.8,0-6.9,0.7-10.4,4.3c-7.1,7.1-3.5,15.3-3.3,15.7
				l0.1,0.2c0.4,1.4,0.5,3.6-1.8,5.9L37.7,48.2c-1,1-2.7,2.6-3.8,3.6L13.3,71c-0.2,0.2-0.3,0.4-0.3,0.7c0,0.3,0.1,0.5,0.3,0.7l6,6
				c0.4,0.4,1,0.4,1.4,0l19.2-20.7c1-1,2.6-2.7,3.6-3.7l18.9-18.9c1.8-1.8,3.9-2.5,5.9-1.8l0.2,0.1c0,0,2.3,1,5.5,1
				c3.9,0,7.3-1.5,10.2-4.4c5.1-5.1,4.4-11.2,4.1-12.9l-4.6,4.6c-1.8,1.8-4.2,2.8-6.8,2.8c-2.6,0-4.9-1-6.8-2.8
				c-3.7-3.7-3.7-9.8,0-13.5l4.6-4.6C74.1,3.5,73.2,3.3,72.1,3.3z"/>
		</g>
	</g>
</g>
</svg>
