<?xml version="1.0" encoding="utf-8"?>
<!-- Generator: Adobe Illustrator 19.1.0, SVG Export Plug-In . SVG Version: 6.00 Build 0)  -->
<svg version="1.1" xmlns="http://www.w3.org/2000/svg" xmlns:xlink="http://www.w3.org/1999/xlink" x="0px" y="0px"
	 viewBox="0 0 92 88" style="enable-background:new 0 0 92 88;" xml:space="preserve">
<style type="text/css">
	.st0{fill:#D19326;}
	.st1{fill:#E6A529;}
</style>
<g id="レイヤー_1">
</g>
<g id="レイヤー_2">
	<g>
		<path class="st0" d="M32,74.7l5.7-15.8c-4.4-2.8-7.2-7.8-7-13.5C31,37.6,37.2,31.2,45,30.7c8.9-0.6,16.3,6.5,16.3,15.3
			c0,5.7-3.1,10.7-7.7,13.3l6,15.4C70.4,69.5,78.1,57,77.3,44c-0.9-15.6-14.4-29-30-29.7C29.7,13.5,14,28.3,14,45.8
			C14,57.8,21.9,69.7,32,74.7z"/>
		<path class="st1" d="M45.3,0C20,0.4-0.4,21.5,0,46.8C0.3,65.2,11.4,80.9,27.2,88l5.2-14.5C22,68.4,15,57.5,15.3,45.1
			c0.5-16.3,13.9-29.5,30.2-29.7C62.7,15.1,76.6,28.9,76.6,46c0,12.2-7.1,22.8-17.5,27.7L64.7,88C80.8,80.8,92,64.7,92,46
			C92,20.4,71-0.3,45.3,0z"/>
	</g>
</g>
</svg>
