<?xml version="1.0" encoding="utf-8"?>
<!-- Generator: Adobe Illustrator 19.1.0, SVG Export Plug-In . SVG Version: 6.00 Build 0)  -->
<svg version="1.1" id="レイヤー_1" xmlns="http://www.w3.org/2000/svg" xmlns:xlink="http://www.w3.org/1999/xlink" x="0px"
	 y="0px" viewBox="0 0 62 62" style="enable-background:new 0 0 62 62;" xml:space="preserve">
<style type="text/css">
	.st0{fill:#626f74;}
</style>
<g id="G3XJSp.tif">
	<g>
		<path class="st0" d="M41.8,62c-1.6,0-3.2,0-4.9,0c-1.4-0.8-2-2-1.9-3.6c0-1.9,0-3.9,0-5.8c0-0.6-0.2-0.8-0.8-0.8
			c-1.9,0-3.8,0-5.7,0c-0.7,0-0.8,0.1-0.8,0.8c0,1.9-0.1,3.8,0,5.8c0,1.6-0.5,2.8-1.9,3.6c-1.6,0-3.2,0-4.7,0
			c-1.5-0.6-2.1-1.7-2.1-3.3c0-2-0.1-4.1-0.1-6.1c0-0.6-0.2-0.8-0.8-0.8c-1,0-2,0-3,0c-1.3,0-3-1.3-3-3.1c0.1-6.7,0-13.4,0-20.1
			c0-1.5,0-3,0-4.5c0-0.6,0.2-0.8,0.8-0.7c0.1,0,0.3,0,0.4,0c11.9,0,23.8,0,35.7,0c0.2,0,0.4,0,0.7,0c0.3,0,0.5,0.2,0.5,0.5
			c0,0.2,0,0.5,0,0.7c0,7.3,0,14.7-0.1,22c0,0.9,0,1.7,0,2.6c-0.1,1.4-1.2,2.5-2.5,2.6c-0.9,0.1-1.9,0.1-2.9,0.1
			c-0.9,0-0.9,0.1-0.9,0.9c0,2.1,0,4.2,0,6.3c0,0.9-0.3,1.7-1,2.3C42.4,61.6,42.1,61.8,41.8,62z"/>
		<path class="st0" d="M43.4,0c0.6,0.4,0.5,0.8,0.2,1.3c-0.8,1.4-1.6,2.7-2.4,4.1c-0.4,0.7-0.4,0.7,0.2,1.2c2.4,1.6,4.4,3.6,5.9,6
			c1.6,2.5,2.4,5.3,2.7,8.3c0.1,0.5-0.1,0.7-0.6,0.7c-0.2,0-0.4,0-0.6,0C37,21.8,25,21.7,13.1,21.8c-1,0-1,0-0.9-1
			c0.4-4.4,2.3-8.2,5.3-11.4c1-1,2.1-2,3.3-2.7c0.5-0.3,0.6-0.6,0.3-1.1c-0.8-1.4-1.6-2.8-2.5-4.3c-0.3-0.5-0.3-0.9,0.2-1.2
			c0.2,0,0.5,0,0.7,0c0.2,0.3,0.4,0.6,0.6,0.9c0.8,1.4,1.6,2.7,2.4,4.1c0.2,0.4,0.5,0.5,0.9,0.3c0.7-0.3,1.5-0.6,2.2-0.8
			c4.2-1.2,8.4-1.1,12.5,0.6c1,0.4,1.2,0.3,1.8-0.6c0.2-0.3,0.3-0.6,0.5-0.8c0.8-1.2,1.3-2.4,2.3-3.5C43,0,43.2,0,43.4,0z
			 M41.3,13.4c0-1.1-0.7-1.9-1.8-1.9c-1-0.1-1.8,0.8-1.9,1.8c0,1,0.8,1.8,1.8,1.9C40.4,15.2,41.2,14.5,41.3,13.4z M23.4,13.3
			c0-1-0.9-1.9-1.9-1.9c-1,0-1.8,0.9-1.8,1.9c0,1,0.8,1.8,1.9,1.8C22.7,15.2,23.5,14.4,23.4,13.3z"/>
		<path class="st0" d="M58.8,45.1c-0.1,0.3-0.2,0.7-0.4,1c-0.5,0.9-1.2,1.5-2.3,1.4c-0.7,0-1.5,0-2.2,0c-1.2,0-2-0.8-2.2-1.9
			c-0.1-0.8-0.2-1.6-0.2-2.4c0-5.5,0-11.1,0-16.6c0-1.6,1.2-2.8,2.7-2.9c0.6,0,1.1,0,1.7,0c1.2-0.1,2,0.6,2.6,1.6
			c0.1,0.2,0.2,0.3,0.3,0.5C58.8,32.3,58.8,38.7,58.8,45.1z"/>
		<path class="st0" d="M3.4,35.5c0-2.9,0-5.8,0-8.8c0-1.6,1.1-2.8,2.7-3c0.7-0.1,1.3,0,1.9,0c1.4,0.1,2.6,1.3,2.6,2.8
			c0,5.8,0,11.6,0,17.4c0,2.6-0.7,3.9-3.7,3.6c-0.3,0-0.6,0-0.9,0c-1.3,0-2.2-0.7-2.6-2c-0.1-0.5-0.2-1-0.2-1.5
			C3.4,41.2,3.4,38.3,3.4,35.5z"/>
	</g>
</g>
</svg>
