<?xml version="1.0" encoding="utf-8"?>
<!-- Generator: Adobe Illustrator 19.1.0, SVG Export Plug-In . SVG Version: 6.00 Build 0)  -->
<svg version="1.1" id="レイヤー_1" xmlns="http://www.w3.org/2000/svg" xmlns:xlink="http://www.w3.org/1999/xlink" x="0px"
	 y="0px" viewBox="0 0 120 120" style="enable-background:new 0 0 120 120;" xml:space="preserve">
<style type="text/css">
	.st0{clip-path:url(#SVGID_2_);}
	.st1{fill:#626F74;}
</style>
<g id="fIcon18Api">
	<defs>
		<rect id="SVGID_1_" width="120" height="120"/>
	</defs>
	<clipPath id="SVGID_2_">
		<use xlink:href="#SVGID_1_"  style="overflow:visible;"/>
	</clipPath>
	<g class="st0">
		<path class="st1" d="M41,82c-1.4,0-2.9-0.1-4.4-0.2l-0.8-0.1l-0.4-0.8c-0.7-1.4-1.3-3-1.9-4.6c-0.4-1-0.8-2.1-1.2-3.1
			c-2.8-0.8-5.5-1.9-8.1-3.4c-1.1,0.4-2.2,0.9-3.3,1.4c-1.4,0.6-2.9,1.3-4.3,1.8l-0.8,0.3l-0.7-0.5c-2.2-1.8-4.3-3.8-6.1-6.1
			l-0.5-0.7l0.3-0.8c0.5-1.4,1.2-2.9,1.8-4.3c0.5-1.1,1-2.2,1.4-3.3c-1.5-2.5-2.6-5.2-3.4-8.1c-1-0.4-2-0.8-3.1-1.2
			c-1.6-0.6-3.2-1.2-4.6-1.9l-0.8-0.4l-0.1-0.8C0.1,43.9,0,42.4,0,41c0-1.4,0.1-2.9,0.2-4.4l0.1-0.8l0.8-0.4c1.4-0.7,3-1.3,4.6-1.9
			c1-0.4,2.1-0.8,3.1-1.2c0.8-2.8,1.9-5.5,3.4-8.1c-0.4-1.1-0.9-2.2-1.4-3.3c-0.6-1.4-1.3-2.9-1.8-4.3l-0.3-0.8l0.5-0.7
			c1.8-2.2,3.8-4.3,6.1-6.1l0.7-0.5l0.8,0.3c1.4,0.5,2.9,1.2,4.3,1.8c1.1,0.5,2.2,1,3.3,1.4c2.5-1.5,5.2-2.6,8.1-3.4
			c0.4-1,0.8-2,1.2-3.1c0.6-1.6,1.2-3.2,1.9-4.6l0.4-0.8l0.8-0.1c3-0.3,5.9-0.3,8.8,0l0.8,0.1l0.4,0.8c0.7,1.4,1.3,3,1.9,4.6
			c0.4,1,0.8,2.1,1.2,3.1c2.8,0.8,5.5,1.9,8.1,3.4c1.1-0.4,2.2-0.9,3.3-1.4c1.4-0.6,2.9-1.3,4.3-1.8l0.8-0.3l0.7,0.5
			c2.2,1.8,4.3,3.8,6.1,6.1l0.5,0.7l-0.3,0.8c-0.5,1.4-1.2,2.9-1.8,4.3c-0.5,1.1-1,2.2-1.4,3.3c1.5,2.5,2.6,5.2,3.4,8.1
			c1,0.4,2,0.8,3.1,1.2c1.6,0.6,3.2,1.2,4.6,1.9l0.8,0.4l0.1,0.8c0.2,1.5,0.2,3,0.2,4.4c0,1.4-0.1,2.9-0.2,4.4l-0.1,0.8l-0.8,0.4
			c-1.4,0.7-3,1.3-4.6,1.9c-1,0.4-2.1,0.8-3.1,1.2c-0.8,2.8-1.9,5.5-3.4,8.1c0.4,1.1,0.9,2.2,1.4,3.3c0.6,1.4,1.3,2.9,1.8,4.3
			l0.3,0.8l-0.5,0.7c-1.8,2.2-3.8,4.3-6.1,6.1l-0.7,0.5l-0.8-0.3c-1.4-0.5-2.9-1.2-4.3-1.8c-1.1-0.5-2.2-1-3.3-1.4
			c-2.5,1.5-5.2,2.6-8.1,3.4c-0.4,1-0.8,2-1.2,3.1c-0.6,1.6-1.2,3.2-1.9,4.6l-0.4,0.8l-0.8,0.1C43.9,81.9,42.4,82,41,82z M37.8,78.9
			c2.2,0.2,4.3,0.2,6.5,0c0.5-1.1,1-2.4,1.4-3.6c0.5-1.3,1-2.7,1.6-3.9l0.3-0.7l0.7-0.2c3-0.7,5.9-1.9,8.6-3.6l0.6-0.4l0.7,0.3
			c1.3,0.5,2.7,1.1,4.1,1.7c1.1,0.5,2.3,1,3.3,1.4c1.6-1.3,3.1-2.8,4.4-4.4c-0.4-1.1-0.9-2.2-1.4-3.3c-0.6-1.4-1.2-2.8-1.7-4.1
			l-0.3-0.7l0.4-0.6c1.6-2.7,2.8-5.6,3.6-8.6l0.2-0.7l0.7-0.3c1.2-0.5,2.6-1.1,3.9-1.6c1.2-0.5,2.5-0.9,3.6-1.4
			C79,43.1,79,42.1,79,41c0-1.1,0-2.1-0.1-3.2c-1.1-0.5-2.4-1-3.6-1.4c-1.3-0.5-2.7-1-3.9-1.6l-0.7-0.3l-0.2-0.7
			c-0.7-3-1.9-5.9-3.6-8.6l-0.4-0.6l0.3-0.7c0.5-1.3,1.1-2.7,1.7-4.1c0.5-1.1,1-2.3,1.4-3.3c-1.3-1.6-2.8-3.1-4.4-4.4
			c-1.1,0.4-2.2,0.9-3.3,1.4c-1.4,0.6-2.8,1.2-4.1,1.7l-0.7,0.3l-0.6-0.4c-2.7-1.6-5.6-2.8-8.6-3.6l-0.7-0.2l-0.3-0.7
			c-0.5-1.2-1.1-2.6-1.6-3.9c-0.5-1.2-0.9-2.5-1.4-3.6c-2.2-0.2-4.3-0.2-6.5,0c-0.5,1.1-1,2.4-1.4,3.6c-0.5,1.3-1,2.7-1.6,3.9
			l-0.3,0.7l-0.7,0.2c-3,0.7-5.9,1.9-8.6,3.6l-0.6,0.4l-0.7-0.3c-1.3-0.5-2.7-1.1-4.1-1.7c-1.1-0.5-2.3-1-3.3-1.4
			c-1.6,1.3-3.1,2.8-4.4,4.4c0.4,1.1,0.9,2.2,1.4,3.3c0.6,1.4,1.2,2.8,1.7,4.1l0.3,0.7l-0.4,0.6c-1.6,2.7-2.8,5.6-3.6,8.6l-0.2,0.7
			l-0.7,0.3c-1.2,0.5-2.6,1.1-3.9,1.6c-1.2,0.5-2.5,0.9-3.6,1.4C3,38.9,3,39.9,3,41c0,1.1,0,2.1,0.1,3.2c1.1,0.5,2.4,1,3.6,1.4
			c1.3,0.5,2.7,1,3.9,1.6l0.7,0.3l0.2,0.7c0.7,3,1.9,5.9,3.6,8.6l0.4,0.6l-0.3,0.7c-0.5,1.3-1.1,2.7-1.7,4.1c-0.5,1.1-1,2.3-1.4,3.3
			c1.3,1.6,2.8,3.1,4.4,4.4c1.1-0.4,2.2-0.9,3.3-1.4c1.4-0.6,2.8-1.2,4.1-1.7l0.7-0.3l0.6,0.4c2.7,1.6,5.6,2.8,8.6,3.6l0.7,0.2
			l0.3,0.7c0.5,1.2,1.1,2.6,1.6,3.9C36.8,76.5,37.3,77.7,37.8,78.9z"/>
		<path class="st1" d="M41,55.7c-8.1,0-14.7-6.6-14.7-14.7S32.9,26.3,41,26.3S55.7,32.9,55.7,41S49.1,55.7,41,55.7z M41,29.3
			c-6.4,0-11.7,5.2-11.7,11.7S34.6,52.7,41,52.7S52.7,47.4,52.7,41S47.4,29.3,41,29.3z"/>
		<path class="st1" d="M87.8,97.8c-5.5,0-10-4.5-10-10s4.5-10,10-10s10,4.5,10,10S93.3,97.8,87.8,97.8z M87.8,80.8c-3.9,0-7,3.1-7,7
			s3.1,7,7,7s7-3.1,7-7S91.6,80.8,87.8,80.8z"/>
		<g>
			<path class="st1" d="M95.6,120l-1.5-2.5c-1-1.7-2.1-3.4-3-4.8c-2.2,0.3-4.4,0.3-6.6,0c-1,1.5-2.2,3.4-3.2,5.1l-1.4,2.2l-1.1-0.3
				c-2.5-0.7-4.9-1.7-7.1-3l-1-0.6l0.6-2.5c0.5-2,1-4.1,1.3-5.9c-1.8-1.3-3.3-2.9-4.7-4.7c-1.7,0.3-3.7,0.8-5.6,1.3l-2.9,0.7l-0.6-1
				c-1.3-2.3-2.3-4.8-3-7.4l-0.3-1.1L58,94c1.7-1,3.4-2.1,4.8-3c-0.1-1.1-0.2-2.2-0.2-3.3c0-1.1,0.1-2.2,0.2-3.3
				c-1.5-1-3.3-2.2-5.1-3.2l-2.2-1.4l0.3-1.1c0.7-2.5,1.7-4.9,3-7.1l0.6-1l2.5,0.6c2,0.5,4.1,1,5.9,1.3c1.3-1.8,2.9-3.3,4.7-4.7
				c-0.3-1.7-0.8-3.7-1.3-5.6l-0.7-2.9l1-0.6c2.3-1.3,4.8-2.3,7.4-3l1.1-0.3l1.5,2.5c1,1.7,2.1,3.4,3,4.8c2.2-0.3,4.4-0.3,6.6,0
				c1-1.5,2.2-3.4,3.2-5.1l1.4-2.2l1.1,0.3c2.5,0.7,4.9,1.7,7.1,3l1,0.6l-0.6,2.5c-0.5,2-1,4.1-1.3,5.9c1.8,1.3,3.3,2.9,4.7,4.7
				c1.7-0.3,3.7-0.8,5.6-1.3l2.9-0.7l0.6,1c1.3,2.3,2.3,4.8,3,7.4l0.3,1.1l-2.5,1.5c-1.7,1-3.4,2.1-4.8,3c0.1,1.1,0.2,2.2,0.2,3.3
				c0,1.1-0.1,2.2-0.2,3.3c1.5,1,3.4,2.2,5.1,3.2l2.2,1.4l-0.3,1.1c-0.7,2.5-1.7,4.9-3,7.1l-0.6,1l-2.5-0.6c-2-0.5-4.1-1-5.9-1.3
				c-1.3,1.8-2.9,3.3-4.7,4.7c0.3,1.7,0.8,3.7,1.3,5.6l0.7,2.9l-1,0.6c-2.3,1.3-4.8,2.3-7.4,3L95.6,120z M92.4,109.4l0.5,0.8
				c1.2,1.7,2.4,3.7,3.7,5.7l0.3,0.6c1.6-0.5,3.1-1.1,4.6-1.9l-0.2-0.6c-0.5-2.3-1.1-4.6-1.5-6.7l-0.2-0.9l0.8-0.5
				c2.1-1.5,3.8-3.2,5.3-5.3l0.5-0.8l0.9,0.2c2.1,0.4,4.6,1,7,1.5l0.3,0.1c0.7-1.4,1.3-2.9,1.8-4.4l-0.3-0.2c-2.1-1.3-4.3-2.6-6-3.9
				l-0.8-0.5l0.2-0.9c0.2-1.3,0.3-2.5,0.3-3.8c0-1.2-0.1-2.5-0.3-3.7l-0.2-0.9l0.8-0.5c1.7-1.2,3.7-2.4,5.7-3.7l0.6-0.3
				c-0.5-1.6-1.1-3.1-1.9-4.6l-0.6,0.2c-2.3,0.5-4.6,1.1-6.7,1.5l-0.9,0.2l-0.5-0.8c-1.5-2.1-3.2-3.8-5.3-5.3l-0.8-0.5l0.2-0.9
				c0.4-2.1,1-4.6,1.5-7l0.1-0.3c-1.4-0.7-2.9-1.3-4.4-1.8l-0.2,0.3c-1.3,2.1-2.6,4.3-3.9,6l-0.5,0.8L91.5,66c-2.5-0.4-5-0.4-7.5,0
				l-0.9,0.2l-0.5-0.8c-1.2-1.7-2.4-3.7-3.7-5.7L78.6,59c-1.6,0.5-3.1,1.1-4.6,1.9l0.2,0.6c0.5,2.3,1.1,4.6,1.5,6.7l0.2,0.9L75,69.7
				c-2.1,1.5-3.8,3.2-5.3,5.3l-0.5,0.8l-0.9-0.2c-2.1-0.4-4.6-1-7-1.5L60.9,74c-0.7,1.4-1.3,2.9-1.8,4.4l0.3,0.2
				c2.1,1.3,4.3,2.6,6,3.9l0.8,0.5L66,84c-0.2,1.3-0.3,2.5-0.3,3.8c0,1.2,0.1,2.5,0.3,3.7l0.2,0.9l-0.8,0.5
				c-1.7,1.2-3.7,2.4-5.7,3.7L59,96.9c0.5,1.6,1.1,3.1,1.9,4.6l0.6-0.2c2.3-0.5,4.6-1.1,6.7-1.5l0.9-0.2l0.5,0.8
				c1.5,2.1,3.2,3.8,5.3,5.3l0.8,0.5l-0.2,0.9c-0.4,2.1-1,4.6-1.5,7l-0.1,0.3c1.4,0.7,2.9,1.3,4.4,1.8l0.2-0.3
				c1.3-2.1,2.6-4.3,3.9-6l0.5-0.8l0.9,0.2c2.5,0.4,5,0.4,7.5,0L92.4,109.4z"/>
		</g>
	</g>
</g>
</svg>
