<?xml version="1.0" encoding="utf-8"?>
<!-- Generator: Adobe Illustrator 19.1.0, SVG Export Plug-In . SVG Version: 6.00 Build 0)  -->
<svg version="1.1" xmlns="http://www.w3.org/2000/svg" xmlns:xlink="http://www.w3.org/1999/xlink" x="0px" y="0px"
	 viewBox="0 0 88 88" style="enable-background:new 0 0 88 88;" xml:space="preserve">
<style type="text/css">
	.st0{fill:#698D32;}
	.st1{fill:#99C045;}
</style>
<g id="レイヤー_1">
</g>
<g id="レイヤー_2">
	<g>
		<path class="st0" d="M72.3,26.1H41.6c-8.6,0-15.6,7-15.6,15.6V50l9.5,0v-8.3c0-3.3,2.7-6,6-6h30.7c3.3,0,6,2.7,6,6v30.7
			c0,3.3-2.7,6-6,6H41.6c-3.3,0-6-2.7-6-6v-8.2l-9.5,0v8.2C26,81,33,88,41.6,88h30.7c8.6,0,15.6-7,15.6-15.6V41.7
			C87.9,33.1,80.9,26.1,72.3,26.1z"/>
		<path class="st1" d="M15.6,0l30.7,0c8.6,0,15.6,7,15.6,15.6v8.3l-9.5,0v-8.3c0-3.3-2.7-6-6-6H15.6c-3.3,0-6,2.7-6,6v30.7
			c0,3.3,2.7,6,6,6h30.7c3.3,0,6-2.7,6-6v-8.2l9.5,0v8.2c0,8.6-7,15.6-15.6,15.6H15.6C7,61.9,0,54.9,0,46.3l0-30.7C0,7,7,0,15.6,0z"
			/>
	</g>
</g>
</svg>
