<svg id="レイヤー_1" xmlns="http://www.w3.org/2000/svg" viewBox="0 0 62 62"><style>.st0{fill:#626f74}</style><path class="st0" d="M2.8 20.2c-.3 0-.6-.1-.9-.2s-.5-.3-.7-.5-.4-.4-.5-.7-.2-.6-.2-.9.1-.6.2-.9.3-.5.5-.7.4-.4.7-.5.6-.2.9-.2.6.1.9.2.5.3.7.5.4.4.5.7.2.6.2.9-.1.6-.2.9-.3.5-.5.7-.4.4-.7.5-.6.2-.9.2zM1 23.7h3.6v22.1H1V23.7zm21.6-7.9c2.1 0 4 .4 5.7 1.1s3.1 1.7 4.3 3.1 2.1 2.9 2.7 4.8c.6 1.9 1 4 1 6.4s-.3 4.5-1 6.4c-.6 1.9-1.5 3.5-2.7 4.8s-2.6 2.3-4.3 3-3.6 1.1-5.7 1.1-4-.4-5.7-1.1-3.1-1.7-4.3-3-2.1-2.9-2.7-4.8-1-4-1-6.4.3-4.5 1-6.4 1.5-3.5 2.7-4.8 2.6-2.3 4.3-3.1 3.6-1.1 5.7-1.1zm0 3.4c-1.5 0-2.9.3-4.1.8s-2.2 1.3-3.1 2.4-1.5 2.3-2 3.8-.7 3.1-.7 4.9.2 3.5.7 4.9 1.1 2.7 2 3.7 1.9 1.8 3.1 2.4 2.6.8 4.1.8 2.9-.3 4.1-.8 2.2-1.3 3.1-2.4c.9-1 1.5-2.3 2-3.7.5-1.5.7-3.1.7-4.9s-.2-3.5-.7-4.9c-.5-1.5-1.1-2.7-2-3.8-.9-1-1.9-1.8-3.1-2.4s-2.6-.8-4.1-.8zm20.5 18.5c.1.8.3 1.5.7 2.2s.9 1.2 1.6 1.7 1.4.8 2.3 1.1 1.9.4 2.9.4 1.9-.1 2.8-.4 1.6-.6 2.2-1 1.1-1 1.4-1.6.5-1.3.5-2c0-1.2-.5-2.3-1.4-3.1s-2.4-1.5-4.3-2L48 32c-1.4-.3-2.5-.8-3.5-1.2-1-.5-1.8-1-2.5-1.7s-1.1-1.4-1.4-2.2c-.3-.8-.5-1.7-.5-2.7 0-1.2.3-2.4.8-3.4s1.2-1.9 2.2-2.6c.9-.7 2-1.3 3.3-1.7 1.3-.4 2.7-.6 4.2-.6s2.8.2 4.1.6 2.3 1 3.2 1.7 1.6 1.6 2.2 2.7c.5 1 .8 2.2.9 3.4h-3.7c-.1-.8-.3-1.5-.6-2.1-.3-.6-.8-1.2-1.4-1.6s-1.3-.8-2.1-1-1.7-.4-2.6-.4-1.8.1-2.6.4c-.8.2-1.5.6-2.1 1s-1 .9-1.3 1.5-.5 1.3-.5 2c0 .6.1 1.1.3 1.5s.5.9 1 1.2c.5.4 1 .7 1.8 1s1.6.6 2.6.9l3.1.8c1.5.4 2.8.8 3.9 1.3s2 1.1 2.7 1.7 1.2 1.4 1.5 2.2.5 1.8.5 2.9c0 1.4-.3 2.6-.8 3.7s-1.2 2-2.2 2.8c-1 .8-2.1 1.3-3.5 1.8s-2.9.6-4.6.6c-1.6 0-3-.2-4.3-.6-1.3-.4-2.4-1-3.4-1.7s-1.7-1.7-2.3-2.7-.9-2.2-1-3.6h3.7z"/></svg>