<svg xmlns="http://www.w3.org/2000/svg" xmlns:xlink="http://www.w3.org/1999/xlink" viewBox="0 0 92 82"><style>.st0{clip-path:url(#SVGID_2_)}.st1{fill:#619bdb}</style><g id="レイヤー_2"><g id="fIcon21Onesdk"><defs><path id="SVGID_1_" d="M-13.5-19.4h120.8v120.8H-13.5z"/></defs><clipPath id="SVGID_2_"><use xlink:href="#SVGID_1_" overflow="visible"/></clipPath><g class="st0"><path class="st1" d="M40.8 43.5c-1.1 0-2.1-.4-2.9-1.2L24.8 29.2c-.4-.4-1.1-.4-1.5 0l-.9.9c-.9.9-2.2 2.6-2.9 3.7l-1.1 2c-.8 1.3-2.3 3.3-3.4 4.4l-.7.7c-.8.8-1.8 1.2-2.9 1.2s-2.1-.4-2.9-1.2l-7.3-7.3c-1.6-1.6-1.6-4.2 0-5.8l.8-.7c1.1-1.1 3-2.6 4.4-3.4l2-1.1c.5-.3.8-.5.9-.7-.3-1.6 1.4-3.5 1.8-3.9L25.6 3.5c1.3-1.3 3.7-2.2 5.5-2.1l18.9 1c1.8.1 2.4 1.2 2.6 1.6.2.4.4 1.6-.9 2.9l-.9.9c-1.2 1.2-3.4 2.4-5 2.9l-3.5.9c-1.1.3-2.8 1.3-3.6 2.1l-3.9 3.9c-.4.4-.4 1.1 0 1.5l13.1 13.1c1.6 1.6 1.6 4.2 0 5.8l-4.2 4.2c-.8.9-1.8 1.3-2.9 1.3zM24.1 25.9c1.1 0 2.1.4 2.9 1.2l13.1 13.1c.4.4 1.1.4 1.5 0l4.2-4.2c.4-.4.4-1.1 0-1.5L32.7 21.3c-1.6-1.6-1.6-4.2 0-5.8l3.9-3.9c1.2-1.2 3.4-2.4 5-2.9l3.5-.9c1.1-.3 2.8-1.3 3.6-2.1l.3-.3-18.2-1c-1 0-2.5.6-3.1 1.2L13.2 20.1c-.5.5-.8 1-.9 1.3.1.4.1.7 0 1.1-.4 1.3-1.8 2.3-2.5 2.7l-2 1.1c-1.1.6-2.8 2-3.7 2.9l-.7.7c-.4.4-.4 1.1 0 1.5l7.3 7.3c.4.4 1.1.4 1.5 0l.8-.7c.9-.9 2.2-2.6 2.9-3.7l1.1-2c.8-1.3 2.3-3.3 3.3-4.4l.9-.9c.8-.7 1.8-1.1 2.9-1.1zm53.4 56c-1.1 0-2.2-.5-2.9-1.3L55.4 59.9c-1-1-2.6-2.7-3.5-3.7l-2.4-2.4c-.8-.8-1.2-1.8-1.2-2.9 0-1.1.4-2.1 1.2-2.9l4.2-4.2c.8-.8 1.8-1.2 2.9-1.2 1.1 0 2.1.4 2.9 1.2l2.4 2.4c1 1 2.7 2.6 3.7 3.5L86.2 69c.8.7 1.3 1.8 1.3 2.9 0 1.1-.4 2.1-1.2 2.9l-6 6c-.7.6-1.7 1.1-2.8 1.1zM56.6 45.6c-.3 0-.6.1-.8.3l-4.2 4.2c-.2.2-.3.5-.3.8 0 .3.1.6.3.8l2.4 2.4c1 1 2.6 2.7 3.6 3.7l19.2 20.7c.4.4 1 .4 1.4 0l6-6c.2-.2.3-.4.3-.7 0-.3-.1-.5-.3-.7L63.5 51.9c-1-1-2.7-2.6-3.8-3.6l-2.4-2.4c-.2-.2-.4-.3-.7-.3z"/><path class="st1" d="M19.9 81.7c-1.1 0-2.1-.4-2.8-1.2l-6-6c-.8-.8-1.2-1.8-1.2-2.9 0-1.1.5-2.1 1.3-2.9l20.7-19.2c1-.9 2.7-2.5 3.7-3.5l18.9-18.9c1.3-1.3 1.3-2.2 1.1-2.8-.5-1.2-4.1-10.8 4-18.9C63.9 1.1 68.8.2 72.1.2c2.2 0 3.7.4 3.7.4 1.6.5 2.2 1.4 2.3 2 .1.5.2 1.5-.9 2.5l-5.1 5.1c-2.5 2.5-2.5 6.7 0 9.2 1.2 1.2 2.9 1.9 4.6 1.9 1.7 0 3.4-.7 4.6-1.9l5.1-5.1c.6-.6 1.3-.9 2-.9.6 0 1.9.2 2.5 2.4.1.4 2.3 9.2-4.8 16.3-3.4 3.4-7.7 5.3-12.3 5.3-3.5 0-6.1-1-6.6-1.3-.9-.3-1.8.1-2.8 1.1L45.6 56.1c-1 1-2.6 2.6-3.5 3.7L22.8 80.5c-.7.8-1.8 1.2-2.9 1.2zM72.1 3.3c-2.8 0-6.9.7-10.4 4.3-7.1 7.1-3.5 15.3-3.3 15.7l.1.2c.4 1.4.5 3.6-1.8 5.9l-19 18.8c-1 1-2.7 2.6-3.8 3.6L13.3 71c-.2.2-.3.4-.3.7 0 .3.1.5.3.7l6 6c.4.4 1 .4 1.4 0l19.2-20.7c1-1 2.6-2.7 3.6-3.7l18.9-18.9c1.8-1.8 3.9-2.5 5.9-1.8l.2.1s2.3 1 5.5 1c3.9 0 7.3-1.5 10.2-4.4 5.1-5.1 4.4-11.2 4.1-12.9l-4.6 4.6c-1.8 1.8-4.2 2.8-6.8 2.8-2.6 0-4.9-1-6.8-2.8-3.7-3.7-3.7-9.8 0-13.5l4.6-4.6c-.6-.1-1.5-.3-2.6-.3z"/></g></g></g></svg>