<svg xmlns="http://www.w3.org/2000/svg" viewBox="0 0 92 88"><style>.st0{fill:#d19326}.st1{fill:#e6a529}</style><g id="レイヤー_2"><path class="st0" d="M32 74.7l5.7-15.8c-4.4-2.8-7.2-7.8-7-13.5.3-7.8 6.5-14.2 14.3-14.7 8.9-.6 16.3 6.5 16.3 15.3 0 5.7-3.1 10.7-7.7 13.3l6 15.4C70.4 69.5 78.1 57 77.3 44c-.9-15.6-14.4-29-30-29.7-17.6-.8-33.3 14-33.3 31.5 0 12 7.9 23.9 18 28.9z"/><path class="st1" d="M45.3 0C20 .4-.4 21.5 0 46.8.3 65.2 11.4 80.9 27.2 88l5.2-14.5C22 68.4 15 57.5 15.3 45.1c.5-16.3 13.9-29.5 30.2-29.7 17.2-.3 31.1 13.5 31.1 30.6 0 12.2-7.1 22.8-17.5 27.7L64.7 88C80.8 80.8 92 64.7 92 46 92 20.4 71-.3 45.3 0z"/></g></svg>