<svg xmlns="http://www.w3.org/2000/svg" viewBox="0 0 88 88"><style>.st0{fill:#3080b7}.st1{fill:#39b2d0}</style><g id="レイヤー_2"><path class="st0" d="M15.5 73.5l-3.2-2.4c-1.1-.8-2.6-4.6-1.7-5.7L42 29.9c1-1.4 3.1-1.3 4 .1l20.2 26.2c.4.7 1.2 1.1 2.1 1.1H80c1.4 0 1.3 1.2 1.3 2.6l.3 2.7c0 1.4-1 3.5-2.3 3.5H65.7c-.8 0-1.9-.4-2.3-1.1L45.6 41.9c-.7-1.1-2.4-1.5-3.7-.2L16.2 71.5c-.8 1.1.4 2.8-.7 2z"/><path class="st1" d="M41.4 62.3L25.6 46.7c-1.1-1.1-2.9-1.1-4 0L7.7 60.5c-1.2 1.1-1.2 1.1-2.3-.1L3 57.8c-1.1-1.2-1-3 .1-4.1l18.6-18.1c1.1-1.1 2.9-1 4 0L41.9 51c1.2 1.1 2.7 1.1 3.7.1l27-30.9c1.1-1.2 1.8-1.4 3-.4l2.6 2.4c1.2 1.1 1.8 2.4.7 3.6L45.6 62.4c-1.2 1.1-3.2.9-4.2-.1z"/><path class="st1" d="M44 8.9c19.4 0 35.1 15.7 35.1 35.1S63.4 79.1 44 79.1 8.9 63.4 8.9 44 24.6 8.9 44 8.9M44 0C19.7 0 0 19.7 0 44s19.7 44 44 44c24.9-.4 44.3-19.9 44-44C88 19.7 68.3 0 44 0z"/><path class="st0" d="M32.4 40.7L24.1 50l6.3 5.1 8.4-9.8z"/></g></svg>