<svg id="レイヤー_1" xmlns="http://www.w3.org/2000/svg" xmlns:xlink="http://www.w3.org/1999/xlink" viewBox="0 0 120 120"><style>.st0{clip-path:url(#SVGID_2_)}.st1{fill:#626f74}</style><g id="fIcon18Api"><defs><path id="SVGID_1_" d="M0 0h120v120H0z"/></defs><clipPath id="SVGID_2_"><use xlink:href="#SVGID_1_" overflow="visible"/></clipPath><g class="st0"><path class="st1" d="M41 82c-1.4 0-2.9-.1-4.4-.2l-.8-.1-.4-.8c-.7-1.4-1.3-3-1.9-4.6-.4-1-.8-2.1-1.2-3.1-2.8-.8-5.5-1.9-8.1-3.4-1.1.4-2.2.9-3.3 1.4-1.4.6-2.9 1.3-4.3 1.8l-.8.3-.7-.5C12.9 71 10.8 69 9 66.7l-.5-.7.3-.8c.5-1.4 1.2-2.9 1.8-4.3.5-1.1 1-2.2 1.4-3.3-1.5-2.5-2.6-5.2-3.4-8.1-1-.4-2-.8-3.1-1.2-1.6-.6-3.2-1.2-4.6-1.9L.1 46l-.1-.8c.1-1.3 0-2.8 0-4.2 0-1.4.1-2.9.2-4.4l.1-.8.8-.4c1.4-.7 3-1.3 4.6-1.9 1-.4 2.1-.8 3.1-1.2.8-2.8 1.9-5.5 3.4-8.1-.4-1.1-.9-2.2-1.4-3.3-.6-1.4-1.3-2.9-1.8-4.3l-.3-.8.5-.7C11 12.9 13 10.8 15.3 9l.7-.5.8.3c1.4.5 2.9 1.2 4.3 1.8 1.1.5 2.2 1 3.3 1.4 2.5-1.5 5.2-2.6 8.1-3.4.4-1 .8-2 1.2-3.1.6-1.6 1.2-3.2 1.9-4.6l.4-.8.8-.1c3-.3 5.9-.3 8.8 0l.8.1.4.8c.7 1.4 1.3 3 1.9 4.6.4 1 .8 2.1 1.2 3.1 2.8.8 5.5 1.9 8.1 3.4 1.1-.4 2.2-.9 3.3-1.4 1.4-.6 2.9-1.3 4.3-1.8l.8-.3.7.5c2.2 1.8 4.3 3.8 6.1 6.1l.5.7-.3.8c-.5 1.4-1.2 2.9-1.8 4.3-.5 1.1-1 2.2-1.4 3.3 1.5 2.5 2.6 5.2 3.4 8.1 1 .4 2 .8 3.1 1.2 1.6.6 3.2 1.2 4.6 1.9l.8.4.1.8c.2 1.5.2 3 .2 4.4 0 1.4-.1 2.9-.2 4.4l-.1.8-.8.4c-1.4.7-3 1.3-4.6 1.9-1 .4-2.1.8-3.1 1.2-.8 2.8-1.9 5.5-3.4 8.1.4 1.1.9 2.2 1.4 3.3.6 1.4 1.3 2.9 1.8 4.3l.3.8-.5.7c-1.8 2.2-3.8 4.3-6.1 6.1l-.7.5-.8-.3c-1.4-.5-2.9-1.2-4.3-1.8-1.1-.5-2.2-1-3.3-1.4-2.5 1.5-5.2 2.6-8.1 3.4-.4 1-.8 2-1.2 3.1-.6 1.6-1.2 3.2-1.9 4.6l-.4.8-.8.1c-1.7-.1-3.2 0-4.6 0zm-3.2-3.1c2.2.2 4.3.2 6.5 0 .5-1.1 1-2.4 1.4-3.6.5-1.3 1-2.7 1.6-3.9l.3-.7.7-.2c3-.7 5.9-1.9 8.6-3.6l.6-.4.7.3c1.3.5 2.7 1.1 4.1 1.7 1.1.5 2.3 1 3.3 1.4 1.6-1.3 3.1-2.8 4.4-4.4-.4-1.1-.9-2.2-1.4-3.3-.6-1.4-1.2-2.8-1.7-4.1l-.3-.7.4-.6c1.6-2.7 2.8-5.6 3.6-8.6l.2-.7.7-.3c1.2-.5 2.6-1.1 3.9-1.6 1.2-.5 2.5-.9 3.6-1.4V41c0-1.1 0-2.1-.1-3.2-1.1-.5-2.4-1-3.6-1.4-1.3-.5-2.7-1-3.9-1.6l-.7-.3-.2-.7c-.7-3-1.9-5.9-3.6-8.6l-.4-.6.3-.7c.5-1.3 1.1-2.7 1.7-4.1.5-1.1 1-2.3 1.4-3.3a30.5 30.5 0 0 0-4.4-4.4c-1.1.4-2.2.9-3.3 1.4-1.4.6-2.8 1.2-4.1 1.7l-.7.3-.6-.4c-2.7-1.6-5.6-2.8-8.6-3.6l-.7-.2-.3-.7c-.5-1.2-1.1-2.6-1.6-3.9-.5-1.2-.9-2.5-1.4-3.6-2.2-.2-4.3-.2-6.5 0-.5 1.1-1 2.4-1.4 3.6-.5 1.3-1 2.7-1.6 3.9l-.3.7-.7.2c-3 .7-5.9 1.9-8.6 3.6l-.6.4-.7-.3c-1.3-.5-2.7-1.1-4.1-1.7-1.1-.5-2.3-1-3.3-1.4a30.5 30.5 0 0 0-4.4 4.4c.4 1.1.9 2.2 1.4 3.3.6 1.4 1.2 2.8 1.7 4.1l.3.7-.4.6c-1.6 2.7-2.8 5.6-3.6 8.6l-.2.7-.7.3c-1.2.5-2.6 1.1-3.9 1.6-1.2.5-2.5.9-3.6 1.4V41c0 1.1 0 2.1.1 3.2 1.1.5 2.4 1 3.6 1.4 1.3.5 2.7 1 3.9 1.6l.7.3.2.7c.7 3 1.9 5.9 3.6 8.6l.4.6-.3.7c-.5 1.3-1.1 2.7-1.7 4.1-.5 1.1-1 2.3-1.4 3.3 1.3 1.6 2.8 3.1 4.4 4.4 1.1-.4 2.2-.9 3.3-1.4 1.4-.6 2.8-1.2 4.1-1.7l.7-.3.6.4c2.7 1.6 5.6 2.8 8.6 3.6l.7.2.3.7c.5 1.2 1.1 2.6 1.6 3.9.4 1.2.9 2.4 1.4 3.6z"/><path class="st1" d="M41 55.7c-8.1 0-14.7-6.6-14.7-14.7S32.9 26.3 41 26.3 55.7 32.9 55.7 41 49.1 55.7 41 55.7zm0-26.4c-6.4 0-11.7 5.2-11.7 11.7S34.6 52.7 41 52.7 52.7 47.4 52.7 41 47.4 29.3 41 29.3zM87.8 97.8c-5.5 0-10-4.5-10-10s4.5-10 10-10 10 4.5 10 10-4.5 10-10 10zm0-17c-3.9 0-7 3.1-7 7s3.1 7 7 7 7-3.1 7-7-3.2-7-7-7z"/><path class="st1" d="M95.6 120l-1.5-2.5c-1-1.7-2.1-3.4-3-4.8-2.2.3-4.4.3-6.6 0-1 1.5-2.2 3.4-3.2 5.1l-1.4 2.2-1.1-.3c-2.5-.7-4.9-1.7-7.1-3l-1-.6.6-2.5c.5-2 1-4.1 1.3-5.9-1.8-1.3-3.3-2.9-4.7-4.7-1.7.3-3.7.8-5.6 1.3l-2.9.7-.6-1c-1.3-2.3-2.3-4.8-3-7.4l-.3-1.1L58 94c1.7-1 3.4-2.1 4.8-3-.1-1.1-.2-2.2-.2-3.3 0-1.1.1-2.2.2-3.3-1.5-1-3.3-2.2-5.1-3.2l-2.2-1.4.3-1.1c.7-2.5 1.7-4.9 3-7.1l.6-1 2.5.6c2 .5 4.1 1 5.9 1.3 1.3-1.8 2.9-3.3 4.7-4.7-.3-1.7-.8-3.7-1.3-5.6l-.7-2.9 1-.6c2.3-1.3 4.8-2.3 7.4-3l1.1-.3 1.5 2.5c1 1.7 2.1 3.4 3 4.8 2.2-.3 4.4-.3 6.6 0 1-1.5 2.2-3.4 3.2-5.1l1.4-2.2 1.1.3c2.5.7 4.9 1.7 7.1 3l1 .6-.6 2.5c-.5 2-1 4.1-1.3 5.9 1.8 1.3 3.3 2.9 4.7 4.7 1.7-.3 3.7-.8 5.6-1.3l2.9-.7.6 1c1.3 2.3 2.3 4.8 3 7.4l.3 1.1-2.5 1.5c-1.7 1-3.4 2.1-4.8 3 .1 1.1.2 2.2.2 3.3 0 1.1-.1 2.2-.2 3.3 1.5 1 3.4 2.2 5.1 3.2l2.2 1.4-.3 1.1c-.7 2.5-1.7 4.9-3 7.1l-.6 1-2.5-.6c-2-.5-4.1-1-5.9-1.3-1.3 1.8-2.9 3.3-4.7 4.7.3 1.7.8 3.7 1.3 5.6l.7 2.9-1 .6c-2.3 1.3-4.8 2.3-7.4 3l-1.1.3zm-3.2-10.6l.5.8c1.2 1.7 2.4 3.7 3.7 5.7l.3.6c1.6-.5 3.1-1.1 4.6-1.9l-.2-.6c-.5-2.3-1.1-4.6-1.5-6.7l-.2-.9.8-.5c2.1-1.5 3.8-3.2 5.3-5.3l.5-.8.9.2c2.1.4 4.6 1 7 1.5l.3.1c.7-1.4 1.3-2.9 1.8-4.4l-.3-.2c-2.1-1.3-4.3-2.6-6-3.9l-.8-.5.2-.9c.2-1.3.3-2.5.3-3.8 0-1.2-.1-2.5-.3-3.7l-.2-.9.8-.5c1.7-1.2 3.7-2.4 5.7-3.7l.6-.3c-.5-1.6-1.1-3.1-1.9-4.6l-.6.2c-2.3.5-4.6 1.1-6.7 1.5l-.9.2-.5-.8c-1.5-2.1-3.2-3.8-5.3-5.3l-.8-.5.2-.9c.4-2.1 1-4.6 1.5-7l.1-.3c-1.4-.7-2.9-1.3-4.4-1.8l-.2.3c-1.3 2.1-2.6 4.3-3.9 6l-.5.8-.8-.6c-2.5-.4-5-.4-7.5 0l-.9.2-.5-.8c-1.2-1.7-2.4-3.7-3.7-5.7l-.3-.7c-1.6.5-3.1 1.1-4.6 1.9l.2.6c.5 2.3 1.1 4.6 1.5 6.7l.2.9-.9.6c-2.1 1.5-3.8 3.2-5.3 5.3l-.5.8-.9-.2c-2.1-.4-4.6-1-7-1.5l-.4-.1c-.7 1.4-1.3 2.9-1.8 4.4l.3.2c2.1 1.3 4.3 2.6 6 3.9l.8.5-.2 1c-.2 1.3-.3 2.5-.3 3.8 0 1.2.1 2.5.3 3.7l.2.9-.8.5c-1.7 1.2-3.7 2.4-5.7 3.7l-.7.3c.5 1.6 1.1 3.1 1.9 4.6l.6-.2c2.3-.5 4.6-1.1 6.7-1.5l.9-.2.5.8c1.5 2.1 3.2 3.8 5.3 5.3l.8.5-.2.9c-.4 2.1-1 4.6-1.5 7l-.1.3c1.4.7 2.9 1.3 4.4 1.8l.2-.3c1.3-2.1 2.6-4.3 3.9-6l.5-.8.9.2c2.5.4 5 .4 7.5 0l1.1.1z"/></g></g></svg>