<svg xmlns="http://www.w3.org/2000/svg" viewBox="0 0 88 88"><style>.st0{fill:#698d32}.st1{fill:#99c045}</style><g id="レイヤー_2"><path class="st0" d="M72.3 26.1H41.6c-8.6 0-15.6 7-15.6 15.6V50h9.5v-8.3c0-3.3 2.7-6 6-6h30.7c3.3 0 6 2.7 6 6v30.7c0 3.3-2.7 6-6 6H41.6c-3.3 0-6-2.7-6-6v-8.2h-9.5v8.2C26 81 33 88 41.6 88h30.7c8.6 0 15.6-7 15.6-15.6V41.7c0-8.6-7-15.6-15.6-15.6z"/><path class="st1" d="M15.6 0h30.7c8.6 0 15.6 7 15.6 15.6v8.3h-9.5v-8.3c0-3.3-2.7-6-6-6H15.6c-3.3 0-6 2.7-6 6v30.7c0 3.3 2.7 6 6 6h30.7c3.3 0 6-2.7 6-6v-8.2h9.5v8.2c0 8.6-7 15.6-15.6 15.6H15.6C7 61.9 0 54.9 0 46.3V15.6C0 7 7 0 15.6 0z"/></g></svg>