<svg id="レイヤー_1" xmlns="http://www.w3.org/2000/svg" viewBox="0 0 62 62"><style>.st0{fill:#626f73}.st1{fill:none}</style><path class="st0" d="M14.6 61.8c0 .1-.1.2-.2.2H12c-.3 0-.5-.1-.7-.3-.2-.2-.3-.5-.3-.7v-6.3c0-.3.1-.5.3-.7.2-.2.5-.3.7-.3h2.4c.1 0 .2.1.2.2v.6c0 .1-.1.2-.2.2h-2.2c-.1 0-.2.1-.2.2v5.9c0 .1.1.2.2.2h2.2c.1 0 .2.1.2.2v.6zm4.8-.9c0 .3-.1.5-.3.7-.2.2-.5.3-.7.3h-2.1c-.3 0-.5-.1-.7-.3-.2-.2-.3-.5-.3-.7v-6.3c0-.3.1-.5.3-.7.2-.2.5-.3.7-.3h2.1c.3 0 .5.1.7.3.2.2.3.5.3.7v6.3zm-1.1-.2v-5.9c0-.1-.1-.2-.2-.2h-1.7c-.1 0-.2.1-.2.2v5.9c0 .1.1.2.2.2h1.7c.1 0 .2-.1.2-.2zm5.3 1.1c0 .1-.1.2-.2.2H21c-.3 0-.5-.1-.7-.3-.2-.2-.3-.5-.3-.7v-6.3c0-.3.1-.5.3-.7.2-.2.5-.3.7-.3h2.4c.1 0 .2.1.2.2v.6c0 .1-.1.2-.2.2h-2.2c-.1 0-.2.1-.2.2v5.9c0 .1.1.2.2.2h2.2c.1 0 .2.1.2.2v.6zm4.7-.9c0 .3-.1.5-.3.7-.2.2-.5.3-.7.3h-2.1c-.3 0-.5-.1-.7-.3-.2-.2-.3-.5-.3-.7v-6.3c0-.3.1-.5.3-.7.2-.2.5-.3.7-.3h2.1c.3 0 .5.1.7.3.2.2.3.5.3.7v6.3zm-1.1-.2v-5.9c0-.1-.1-.2-.2-.2h-1.7c-.1 0-.2.1-.2.2v5.9c0 .1.1.2.2.2H27c.2 0 .2-.1.2-.2zm5.8.2c0 .3-.1.5-.3.7-.2.3-.4.4-.7.4h-3c-.1 0-.2-.1-.2-.2v-.6c0-.1.1-.2.2-.2h2.7c.1 0 .2-.1.2-.2V58c0-.1-.1-.2-.2-.2h-1.9c-.3 0-.5-.1-.7-.3-.2-.2-.3-.5-.3-.7v-2.1c0-.3.1-.5.3-.7.2-.2.5-.3.7-.3h2.9c.1 0 .2.1.2.2v.6c0 .1-.1.2-.2.2H30c-.1 0-.2.1-.2.2v1.7c0 .1.1.2.2.2h2c.3 0 .5.1.7.3.2.2.3.5.3.7v3.1zM38.6 61.8c0 .1-.1.2-.2.2h-2.9c-.3 0-.5-.1-.7-.3-.2-.2-.3-.5-.3-.7v-3.2c0-.3.1-.5.3-.7.2-.2.5-.3.7-.3h1.9c.1 0 .2-.1.2-.2v-1.7c0-.1-.1-.2-.2-.2h-2.7c-.1 0-.2-.1-.2-.2v-.6c0-.1.1-.2.2-.2h2.9c.3 0 .5.1.7.3.2.2.3.5.3.7v2.1c0 .3-.1.5-.3.7-.2.2-.5.3-.7.3h-1.9c-.1 0-.2.1-.2.2v2.7c0 .1.1.2.2.2h2.7c.1 0 .2.1.2.2v.7zm4.7-.9c0 .3-.1.5-.3.7-.2.2-.5.3-.7.3h-2.9c-.1 0-.2-.1-.2-.2v-8c0-.1.1-.2.2-.2h2.9c.3 0 .5.1.7.3.2.2.3.5.3.7v6.4zm-1-.2v-5.9c0-.1-.1-.2-.2-.2h-1.9v6.3h1.9c.1 0 .2-.1.2-.2zM50.7 53.8c-.2-.2-.5-.3-.7-.3h-5.1c-.3 0-.5.1-.7.3-.2.2-.3.5-.3.7v6.3c0 .3.1.5.3.7.2.2.5.3.7.3H50c.3 0 .5-.1.7-.3.2-.2.3-.5.3-.7v-6.3c.1-.2-.1-.5-.3-.7zm-1.3 1.8c0 .1 0 .2-.1.3L48 57.7l1.3 1.8c.1.1.1.2.1.3v.3c0 .1-.1.2-.2.2H49c-.1 0-.2-.1-.3-.1l-1.3-1.7-1.3 1.7c-.1.1-.2.1-.3.1h-.2c-.1 0-.2-.1-.2-.2v-.3c0-.1 0-.2.1-.3l1.3-1.8-1.3-1.8c-.1-.1-.1-.2-.1-.3v-.2c0-.1.1-.2.2-.2h.3c.1 0 .2.1.3.1l1.2 1.7 1.2-1.7c.1-.1.2-.1.3-.1h.3c.1 0 .2.1.2.2v.2z"/><path class="st1" d="M30.9 46.6c-2.7 0-5.5-.8-7.8-2.4-2.2-1.2-9.1-6.1-9-20.6V21l1.4 2.1.6.9c1-4.8 3.8-11.5 11.3-17.7l1.3-1.1-.4-1.7-.5-1.9 1.7 1c.4.2 8.4 5.4 13.2 14.3l.1-.2.7-2.3.8 2.2c2.8 7.4 2.3 13.2 1.6 16.6l.7-.2 1.8-.5-.8 1.6c-4.4 8.5-9.8 10.9-11.9 11.5-1.4.5-2.8.7-4.2.8-.4.2-.5.2-.6.2zM28.8 6.4l.2.1-.1-.3-.1.2z"/><path class="st0" d="M29.1 3.4s9.2 5.9 13.8 15.8l.6-2.1c3.1 8.2 2.2 14.3 1.2 17.4l2-.6c-4.3 8.2-9.4 10.5-11.4 11.1-1.3.4-2.6.7-4 .7H31c-2.7 0-5.2-.8-7.4-2.3-1.9-1-8.7-5.7-8.7-19.9l1.7 2.5c0-.3.1-.6.2-.9.6-4.5 3.2-11.6 11.1-18.1l-1.1 4.7 2.2-4 1.5 1.6-1.4-5.9M26.6 0l.9 3.8.3 1.2-.9.8c-6.8 5.6-9.8 11.6-11.1 16.4l-2.4-3.6v5.1c-.1 14.8 7.1 20 9.4 21.3 2.5 1.6 5.3 2.5 8.2 2.5h.4c1.5 0 3-.3 4.5-.8 1.3-.4 3.2-1.2 5.4-3 2.7-2.2 5-5.2 7-8.9l1.7-3.3-3 .8c.2-1.5.4-3 .3-4.6 0-3.6-.8-7.3-2.2-11.1l-1.7-4.4-.9 3c-2.3-3.7-5-6.6-7.1-8.6-3-2.8-5.3-4.3-5.4-4.4L26.6 0z"/><path class="st0" d="M21 23.2s.7-3.8 3-5.9c0 0 .1 3 .6 4.4 0 0-1.1-1.3-1.3-1.9 0-.1-1.2.8-2.3 3.4zm8.4-7s1.1-3 1-4c0 0 1.8 1.4 2.6 4 0 0-1.2-1.4-2-1.9 0 0-.9 1.5-1.6 1.9zm.2 16.9c-.7-3-3.3-4.9-5.8-4.3-2.5.6-4 3.5-3.3 6.5.7 3 3.3 4.9 5.8 4.3 2.5-.6 4-3.5 3.3-6.5zm-3.3 3.6c-.7.1-1.4-.5-1.4-1.2-.1-.7.5-1.4 1.2-1.4.7-.1 1.4.5 1.4 1.2s-.5 1.3-1.2 1.4zm12.6-7.9c-2.5-.6-5.1 1.3-5.8 4.3-.7 3 .8 5.9 3.3 6.5 2.5.6 5.1-1.3 5.8-4.3.6-3-.8-5.9-3.3-6.5zm-1.1 6.7c-.1.7-.7 1.3-1.4 1.2-.7-.1-1.3-.7-1.2-1.4.1-.7.7-1.3 1.4-1.2.7.1 1.2.7 1.2 1.4zM30 26.6s-.3-3.8 1.4-6.5c0 0 .9 2.9 1.7 4 0 0-1.4-.9-1.7-1.5 0 .1-1 1.2-1.4 4zm-15.2-3s2 3.3 3.3 4.4c0 0-1.8-3-2.3-4.5l-1 .1zM43.5 17.1s-.3 2.5-1.7 4.1c0 0 1-2.9 1-3.9l.7-.2zm3.2 16.8l-3.3 1 2.3-1.4z"/></svg>