<svg id="レイヤー_1" xmlns="http://www.w3.org/2000/svg" viewBox="0 0 150 120"><style>.st0{fill:#619bdb}.st1{fill:none}</style><path class="st0" d="M66.1 75.2c1.1 1.1 2.5 1.6 4 1.6s2.9-.6 4-1.6l23.9-24c1.8-1.8 3.1-5.1 3.1-7.7V31.9c0-3.1-2.3-5.9-5.4-5.9H84c-2.6 0-5.9 1.5-7.7 3.3l-24 24.1c-1.1 1.1-1.6 2.5-1.6 4s.6 2.9 1.6 4l13.8 13.8zM54.9 56.1l24-24C80 31 82.5 30 84 30h11.6c1 0 1.4.8 1.4 1.9v11.6c0 1.6-.8 4-1.9 5.1l-23.9 24c-.7.7-1.9.7-2.6 0L54.9 58.8c-.4-.4-.5-.8-.5-1.3 0-.6.2-1 .5-1.4z"/><path class="st0" d="M86.9 43.5c1 0 1.9-.4 2.6-1 .7-.7 1.2-1.7 1.2-2.7 0-2.1-1.7-3.8-3.8-3.8-2.1 0-3.8 1.7-3.8 3.8s1.7 3.7 3.8 3.7z"/><path class="st0" d="M143.1 11H60.6c-2.2 0-5.6-1.3-7.2-2.9L49.2 4c-2.3-2.3-6.6-4-9.9-4H6.9C3.1 0 0 3.1 0 6.9v106.2c0 3.8 3.1 6.9 6.9 6.9h136.2c3.8 0 6.9-3.1 6.9-6.9v-95c0-3.8-3.1-7.1-6.9-7.1zM6.9 4h32.5c2.2 0 5.6 1.3 7.2 2.9l4.2 4.1c2.3 2.3 6.6 4 9.9 4h82.5c1.7 0 2.9 1.4 2.9 3.1V87c-1-.5-1.7-1-2.9-1h-5.7c.8-2 1.3-4.9 1.3-7.7 0-4.1-1.1-8.3-3.1-11.9 0-.2-.1-.3-.2-.5-.5-.9-1.6-1.2-2.5-.7L117.8 74c-.6.4-1.2.4-1.3.3-.1-.1-.5-.5-.5-1.2V55.6c0-1-.7-1.9-1.8-1.9-.2 0-.2 0-.4.1C100.6 54.1 90 65 90 78.3c0 2.7.5 5.7 1.3 7.7H6.9c-1.2 0-1.9.5-2.9 1V6.9C4 5.2 5.2 4 6.9 4zm88.4 82c-1-2-1.8-4.9-1.8-7.7 0-10.7 8.5-19.6 18.5-20.6v15.4c0 2 1.1 3.6 2.5 4.4.6.4 1.4.5 2.2.5.9 0 2-.3 2.9-.8l13.5-7.8c1.3 2.8 1.9 5.8 1.9 8.8 0 2.8-.5 5.7-1.6 7.7H95.3zm51.7 26.9c0 1.7-1.4 3.1-3.1 3.1H7.1c-1.7 0-3.1-1.4-3.1-3.1V93.1C4 91.4 5.4 90 7.1 90h136.8c1.7 0 3.1 1.4 3.1 3.1v19.8z"/><path class="st0" d="M121.6 66.1c.5.3 1 .4 1.5.4.6 0 1.3-.2 1.9-.5l17.3-10c.2-.1.4-.3.6-.5l.1-.1c0-.1.1-.1.1-.2s0-.1.1-.2c0-.1 0-.1.1-.2V54c0-.2-.1-.4-.2-.7-4.4-7.5-12.4-12.2-21.1-12.2-1 0-1.9.8-1.9 1.9v20c-.1 1.5.5 2.6 1.5 3.1zm17.3-12.4L124 62.4V45.1c6 .6 11.5 3.7 14.9 8.6zM28 50c1 0 2-.8 2-1.9V35.6c0-1-1-1.9-2-1.9s-2 .8-2 1.9v12.5c0 1.1 1 1.9 2 1.9zm.1 6.3c.5 0 1-.2 1.3-.6.4-.3.6-.8.6-1.3s-.2-1-.6-1.3c-.7-.7-1.9-.7-2.7 0-.3.3-.5.8-.5 1.3s.2 1 .5 1.3c.4.4.9.6 1.4.6z"/><path class="st0" d="M13.1 64h16.6c.4 0 .7 0 .8.2.1.2.2.5 0 .8l-.6 1.8c-.3 1-.6 2.3.2 3.3.4.5 1 .9 1.7.9 1.1 0 2-.9 2.7-1.6l3-3.3c1-1.1 3.3-2.1 4.8-2.1h.6c3.1 0 5.9-2.8 5.9-5.9V24.3c0-3.1-2.8-5.4-5.9-5.4h-30C10 19 7 21.3 7 24.4v33.7c0 3.1 3 5.9 6.1 5.9zM11 24.4c0-1 1.1-1.4 2.1-1.4h30c1 0 1.9.3 1.9 1.4V26H28.1c.5 0 1-.1 1.3-.4.4-.3.6-.8.6-1.3s-.2-.9-.6-1.3c-.7-.7-2-.7-2.7 0-.3.3-.5.8-.5 1.3s.2.9.5 1.2c.3.3.8.4 1.3.4H11v-1.5zM45 30v28.1c0 1-.8 1.9-1.9 1.9h-.6c-2.6 0-5.9 1.5-7.6 3.5l-.4.5c-.1-.8-.4-1.5-.8-2.1-.9-1.1-2.3-1.8-3.8-1.8H13.1c-1 0-2.1-.8-2.1-1.9V30h34z"/><path class="st1" d="M0 0h120v120H0z"/></svg>