<svg id="レイヤー_1" xmlns="http://www.w3.org/2000/svg" viewBox="0 0 62 62"><style>.st0{fill:#626f74}</style><path class="st0" d="M18.4 49.2zm42.9-12c-1.1-1.8-2.2-3.7-3.3-5.6-.2-.3-.2-.5 0-.8 1.1-1.8 2.1-3.6 3.2-5.4.3-.4.3-.9.2-1.3-.7-2.5-1.3-4.9-2-7.4-.8-3.1-1.7-6.2-2.5-9.4-.6-2.3-1.3-4.6-1.9-7 0-.1-.1-.2-.2-.3h-.2c-.2.1-.5.1-.7.1C51.6.7 49.3 1.3 47 2c-3.1.8-6.3 1.7-9.4 2.5-2.5.7-4.9 1.3-7.4 2-.3.1-.5.2-.6.5-1.1 1.9-2.1 3.8-3.2 5.7-.2.2-.4.3-.7.3-2.2 0-4.3 0-6.5-.1-.3 0-.5.1-.8.3l-5.3 5.3L.8 30.8c-.4.4-.4.4 0 .8l17.6 17.6c.2.2.4.3.7.3.7 0 1.5 0 2.2-.1h4.4c.3 0 .5.1.6.3l3.3 5.7c.1.2.3.4.6.5 3.6.9 7.1 1.9 10.7 2.8 3.2.9 6.5 1.7 9.7 2.6.7.2 1.5.5 2.2.5.6.1 1.2 0 1.9 0 .4 0 .4 0 .5-.4.4-1.4.7-2.7 1.1-4.1.8-2.9 1.5-5.8 2.3-8.6.9-3.5 1.9-7 2.8-10.6.1-.1.2-.5-.1-.9zM14.2 27.1c2.3-2.3 4.5-4.6 6.8-6.9 1.9-1.9 3.8-3.9 5.7-5.8.1-.1.3-.2.5-.3 6.1-1.6 12.1-3.1 18.2-4.7.1 0 .3-.2.4-.1.1.1-.1.3-.2.4-3.5 6-7 12.1-10.5 18.1-.1.2-.2.2-.4.2H13.2s0-.1-.1-.1c.3-.2.7-.5 1.1-.8zm28.5 25.2c-5.2-1.3-10.4-2.7-15.7-4-.1 0-.2-.1-.3-.2-2.5-2.5-5-5.1-7.5-7.6-1.3-1.3-2.5-2.6-3.8-3.8-.8-.8-1.6-1.5-2.4-2.3.2-.2.3-.1.3-.1h21.2c.2 0 .3.1.4.2 3.5 6.1 7.1 12.2 10.6 18.3 0 .1.1.2.1.3-.8-.2-1.9-.5-2.9-.8zm13.7-20.8c-1.7 6.2-3.5 12.3-5.2 18.5-.2-.3-.4-.6-.5-.8L40.5 31.5c-.1-.2-.1-.4 0-.6 3.5-6.1 7-12.1 10.5-18.2 0-.1.1-.1.2-.2 1.7 6.2 3.5 12.4 5.2 18.5v.5z" id="jCvow3.tif"/></svg>