<svg id="レイヤー_1" xmlns="http://www.w3.org/2000/svg" viewBox="0 0 62 62"><style>.st0,.st1{fill:#626f74;enable-background:new}.st1{fill:#fff}.st2{opacity:.2}.st3{fill:#626f74}</style><path class="st0" d="M3.8.1l5 55.7L31 61.9l22.3-6.2 5-55.7H3.8zM31 43l7.6-2.1.8-8.9H31v11z"/><path class="st1" d="M3.8.1l5 55.7L31 61.9l22.3-6.2 5-55.7H3.8zM17 46.2l-1-11h6.9l.5 5.7L31 43l7.6-2.1.8-8.9H15.7l-1.8-20.6h34.2l-.6 6.8H21.4l.6 7h24.9l-1.9 21-14 3.9-14-3.9z"/><path class="st0" d="M53.4 4.5l-4.3 47.8-18.2 5-18.2-5L8.6 4.5h44.8M58.2.1H3.8l5 55.7L31 61.9l22.3-6.2L58.2.1z"/><path class="st2 st3" d="M31 11.5H13.9l1.8 20.6H31v-6.8h-9l-.6-7H31zM31 43l-7.6-2-.5-5.7H16l1 10.9 14 3.9z"/></svg>