<svg id="レイヤー_1" xmlns="http://www.w3.org/2000/svg" viewBox="0 0 62 62"><style>.st0{fill:#626f74}</style><path class="st0" d="M41.8 62h-4.9c-1.4-.8-2-2-1.9-3.6v-5.8c0-.6-.2-.8-.8-.8h-5.7c-.7 0-.8.1-.8.8 0 1.9-.1 3.8 0 5.8 0 1.6-.5 2.8-1.9 3.6h-4.7c-1.5-.6-2.1-1.7-2.1-3.3 0-2-.1-4.1-.1-6.1 0-.6-.2-.8-.8-.8h-3c-1.3 0-3-1.3-3-3.1.1-6.7 0-13.4 0-20.1v-4.5c0-.6.2-.8.8-.7h36.8c.3 0 .5.2.5.5v.7c0 7.3 0 14.7-.1 22v2.6c-.1 1.4-1.2 2.5-2.5 2.6-.9.1-1.9.1-2.9.1-.9 0-.9.1-.9.9v6.3c0 .9-.3 1.7-1 2.3-.4.2-.7.4-1 .6zm1.6-62c.6.4.5.8.2 1.3-.8 1.4-1.6 2.7-2.4 4.1-.4.7-.4.7.2 1.2 2.4 1.6 4.4 3.6 5.9 6 1.6 2.5 2.4 5.3 2.7 8.3.1.5-.1.7-.6.7h-.6c-11.8.2-23.8.1-35.7.2-1 0-1 0-.9-1 .4-4.4 2.3-8.2 5.3-11.4 1-1 2.1-2 3.3-2.7.5-.3.6-.6.3-1.1-.8-1.4-1.6-2.8-2.5-4.3-.3-.5-.3-.9.2-1.2h.7l.6.9c.8 1.4 1.6 2.7 2.4 4.1.2.4.5.5.9.3.7-.3 1.5-.6 2.2-.8 4.2-1.2 8.4-1.1 12.5.6 1 .4 1.2.3 1.8-.6.2-.3.3-.6.5-.8.8-1.2 1.3-2.4 2.3-3.5.3-.3.5-.3.7-.3zm-2.1 13.4c0-1.1-.7-1.9-1.8-1.9-1-.1-1.8.8-1.9 1.8 0 1 .8 1.8 1.8 1.9 1 0 1.8-.7 1.9-1.8zm-17.9-.1c0-1-.9-1.9-1.9-1.9-1 0-1.8.9-1.8 1.9 0 1 .8 1.8 1.9 1.8 1.1.1 1.9-.7 1.8-1.8zm35.4 31.8c-.1.3-.2.7-.4 1-.5.9-1.2 1.5-2.3 1.4h-2.2c-1.2 0-2-.8-2.2-1.9-.1-.8-.2-1.6-.2-2.4V26.6c0-1.6 1.2-2.8 2.7-2.9h1.7c1.2-.1 2 .6 2.6 1.6.1.2.2.3.3.5v19.3zM3.4 35.5v-8.8c0-1.6 1.1-2.8 2.7-3 .7-.1 1.3 0 1.9 0 1.4.1 2.6 1.3 2.6 2.8v17.4c0 2.6-.7 3.9-3.7 3.6H6c-1.3 0-2.2-.7-2.6-2-.1-.5-.2-1-.2-1.5.2-2.8.2-5.7.2-8.5z" id="G3XJSp.tif"/></svg>