<svg id="レイヤー_1" xmlns="http://www.w3.org/2000/svg" viewBox="0 0 283.5 283.5"><style>.st0{fill:#619bdb}</style><path class="st0" d="M141.9 281c-1.4 0-2.9-.1-4.4-.2l-.8-.1-.4-.8c-.7-1.4-1.3-3-1.9-4.6-.4-1-.8-2.1-1.2-3.1-2.8-.8-5.5-1.9-8.1-3.4-1.1.4-2.2.9-3.3 1.4-1.4.6-2.9 1.3-4.3 1.8l-.8.3-.7-.5c-2.2-1.8-4.3-3.8-6.1-6.1l-.5-.7.3-.8c.5-1.4 1.2-2.9 1.8-4.3.5-1.1 1-2.2 1.4-3.3-1.5-2.5-2.6-5.2-3.4-8.1-1-.4-2-.8-3.1-1.2-1.6-.6-3.2-1.2-4.6-1.9l-.8-.4-.1-.8c-.2-1.5-.2-3-.2-4.4 0-1.4.1-2.9.2-4.4l.1-.8.8-.4c1.4-.7 3-1.3 4.6-1.9 1-.4 2.1-.8 3.1-1.2.8-2.8 1.9-5.5 3.4-8.1-.4-1.1-.9-2.2-1.4-3.3-.6-1.4-1.3-2.9-1.8-4.3l-.3-.8.5-.7c1.8-2.2 3.8-4.3 6.1-6.1l.7-.5.8.3c1.4.5 2.9 1.2 4.3 1.8 1.1.5 2.2 1 3.3 1.4 2.5-1.5 5.2-2.6 8.1-3.4.4-1 .8-2 1.2-3.1.6-1.6 1.2-3.2 1.9-4.6l.4-.8.8-.1c3-.3 5.9-.3 8.8 0l.8.1.4.8c.7 1.4 1.3 3 1.9 4.6.4 1 .8 2.1 1.2 3.1 2.8.8 5.5 1.9 8.1 3.4 1.1-.4 2.2-.9 3.3-1.4 1.4-.6 2.9-1.3 4.3-1.8l.8-.3.7.5c2.2 1.8 4.3 3.8 6.1 6.1l.5.7-.3.8c-.5 1.4-1.2 2.9-1.8 4.3-.5 1.1-1 2.2-1.4 3.3 1.5 2.5 2.6 5.2 3.4 8.1 1 .4 2 .8 3.1 1.2 1.6.6 3.2 1.2 4.6 1.9l.8.4.1.8c.2 1.5.2 3 .2 4.4 0 1.4-.1 2.9-.2 4.4l-.1.8-.8.4c-1.4.7-3 1.3-4.6 1.9-1 .4-2.1.8-3.1 1.2-.8 2.8-1.9 5.5-3.4 8.1.4 1.1.9 2.2 1.4 3.3.6 1.4 1.3 2.9 1.8 4.3l.3.8-.5.7c-1.8 2.2-3.8 4.3-6.1 6.1l-.7.5-.8-.3c-1.4-.5-2.9-1.2-4.3-1.8-1.1-.5-2.2-1-3.3-1.4-2.5 1.5-5.2 2.6-8.1 3.4-.4 1-.8 2-1.2 3.1-.6 1.6-1.2 3.2-1.9 4.6l-.4.8-.8.1c-1.5.1-3 .2-4.4.2zm-3.3-3.1c2.2.2 4.3.2 6.5 0 .5-1.1 1-2.4 1.4-3.6.5-1.3 1-2.7 1.6-3.9l.3-.7.7-.2c3-.7 5.9-1.9 8.6-3.6l.6-.4.7.3c1.3.5 2.7 1.1 4.1 1.7 1.1.5 2.3 1 3.3 1.4 1.6-1.3 3.1-2.8 4.4-4.4-.4-1.1-.9-2.2-1.4-3.3-.6-1.4-1.2-2.8-1.7-4.1l-.3-.7.4-.6c1.6-2.7 2.8-5.6 3.6-8.6l.2-.7.7-.3c1.2-.5 2.6-1.1 3.9-1.6 1.2-.5 2.5-.9 3.6-1.4.1-1.1.1-2.2.1-3.2 0-1.1 0-2.1-.1-3.2-1.1-.5-2.4-1-3.6-1.4-1.3-.5-2.7-1-3.9-1.6l-.7-.3-.2-.7c-.7-3-1.9-5.9-3.6-8.6l-.4-.6.3-.7c.5-1.3 1.1-2.7 1.7-4.1.5-1.1 1-2.3 1.4-3.3a30.5 30.5 0 0 0-4.4-4.4c-1.1.4-2.2.9-3.3 1.4-1.4.6-2.8 1.2-4.1 1.7l-.7.3-.6-.4c-2.7-1.6-5.6-2.8-8.6-3.6l-.7-.2-.3-.7c-.5-1.2-1.1-2.6-1.6-3.9-.5-1.2-.9-2.5-1.4-3.6-2.2-.2-4.3-.2-6.5 0-.5 1.1-1 2.4-1.4 3.6-.5 1.3-1 2.7-1.6 3.9l-.3.7-.7.2c-3 .7-5.9 1.9-8.6 3.6l-.6.4-.7-.3c-1.3-.5-2.7-1.1-4.1-1.7-1.1-.5-2.3-1-3.3-1.4a30.5 30.5 0 0 0-4.4 4.4c.4 1.1.9 2.2 1.4 3.3.6 1.4 1.2 2.8 1.7 4.1l.3.7-.4.6c-1.6 2.7-2.8 5.6-3.6 8.6l-.2.7-.7.3c-1.2.5-2.6 1.1-3.9 1.6-1.2.5-2.5.9-3.6 1.4-.1 1.1-.1 2.2-.1 3.2 0 1.1 0 2.1.1 3.2 1.1.5 2.4 1 3.6 1.4 1.3.5 2.7 1 3.9 1.6l.7.3.2.7c.7 3 1.9 5.9 3.6 8.6l.4.6-.3.7c-.5 1.3-1.1 2.7-1.7 4.1-.5 1.1-1 2.3-1.4 3.3 1.3 1.6 2.8 3.1 4.4 4.4 1.1-.4 2.2-.9 3.3-1.4 1.4-.6 2.8-1.2 4.1-1.7l.7-.3.6.4c2.7 1.6 5.6 2.8 8.6 3.6l.7.2.3.7c.5 1.2 1.1 2.6 1.6 3.9.4 1.2.9 2.4 1.4 3.6z"/><path class="st0" d="M141.9 283.5c-1.5 0-3.1-.1-4.7-.3l-2.3-.2-1-2.1c-.7-1.5-1.3-3.1-1.9-4.7-.3-.7-.5-1.3-.8-2-2.2-.7-4.3-1.6-6.4-2.6l-2.1.9c-1.5.7-3 1.3-4.4 1.9l-2.1.8-1.8-1.4c-2.4-1.9-4.5-4.1-6.4-6.4l-1.4-1.8.8-2.1c.5-1.4 1.2-2.9 1.9-4.4l.9-2.1c-1.1-2-2-4.2-2.6-6.4-.6-.2-1.3-.5-1.9-.7-1.6-.6-3.2-1.2-4.7-1.9l-2.1-1-.2-2.3a37.08 37.08 0 0 1 0-9.4l.2-2.3 2.1-1c1.5-.7 3.1-1.3 4.7-1.9.7-.3 1.3-.5 2-.8.7-2.2 1.6-4.3 2.6-6.4l-.9-2.1c-.7-1.5-1.3-3-1.9-4.4l-.8-2.1 1.4-1.8c1.9-2.4 4.1-4.5 6.4-6.4l1.8-1.4 2.1.8c1.4.5 2.9 1.2 4.4 1.9l2.1.9c2-1.1 4.2-2 6.4-2.6.2-.6.5-1.3.7-1.9.6-1.6 1.2-3.2 1.9-4.7l1-2.1 2.3-.2c3.1-.3 6.2-.3 9.4 0l2.3.2 1 2.1c.7 1.5 1.3 3.1 1.9 4.7.3.7.5 1.3.8 2 2.2.7 4.3 1.6 6.4 2.6l2.1-.9c1.5-.7 3-1.3 4.4-1.9l2.1-.8 1.8 1.4c2.4 1.9 4.5 4.1 6.4 6.4l1.4 1.8-.8 2.1c-.5 1.4-1.2 2.9-1.9 4.4l-.9 2.1c1.1 2 2 4.2 2.6 6.4.6.2 1.3.5 1.9.7 1.6.6 3.3 1.2 4.7 1.9l2.1 1 .2 2.3a37.08 37.08 0 0 1 0 9.4l-.2 2.3-2.1 1c-1.5.7-3.1 1.3-4.7 1.9-.7.3-1.3.5-2 .8-.7 2.2-1.6 4.3-2.6 6.4l.9 2.1c.7 1.5 1.3 3 1.9 4.4l.8 2.1-1.4 1.8c-1.9 2.4-4.1 4.5-6.4 6.4l-1.8 1.4-2.1-.8c-1.4-.5-2.9-1.2-4.4-1.9l-2.1-.9c-2 1.1-4.2 2-6.4 2.6-.2.6-.5 1.3-.7 1.9-.6 1.6-1.2 3.2-1.9 4.7l-1 2.1-2.3.2c-1.6.2-3.2.3-4.7.3zm-1.6-8h3c.3-.7.5-1.4.8-2.1.5-1.4 1-2.7 1.6-4l.8-1.8 1.9-.5c2.8-.7 5.4-1.8 7.9-3.3l1.7-1 1.8.7c1.4.5 2.8 1.2 4.2 1.8.6.3 1.2.5 1.8.8.7-.6 1.3-1.3 2-2-.3-.6-.5-1.2-.8-1.8-.6-1.4-1.3-2.8-1.8-4.2l-.7-1.8 1-1.7c1.5-2.4 2.6-5.1 3.3-7.9l.5-1.9 1.8-.8c1.3-.6 2.7-1.1 4-1.6.7-.3 1.4-.5 2.1-.8v-3c-.7-.3-1.4-.5-2.1-.8-1.3-.5-2.7-1-4-1.6l-1.8-.8-.5-1.9c-.7-2.8-1.8-5.4-3.3-7.9l-1-1.7.7-1.8c.5-1.4 1.2-2.8 1.8-4.2.3-.6.5-1.2.8-1.8-.6-.7-1.3-1.3-2-2-.6.3-1.2.5-1.8.8-1.4.6-2.8 1.3-4.2 1.8l-1.8.7-1.7-1c-2.4-1.5-5.1-2.6-7.9-3.3l-1.9-.5-.8-1.8c-.6-1.3-1.1-2.7-1.6-4-.3-.7-.5-1.4-.8-2.1h-3c-.3.7-.5 1.4-.8 2.1-.5 1.4-1 2.7-1.6 4l-.8 1.8-1.9.5c-2.8.7-5.4 1.8-7.9 3.3l-1.7 1-1.8-.7c-1.4-.5-2.8-1.2-4.2-1.8-.6-.3-1.2-.5-1.8-.8-.7.6-1.3 1.3-2 2 .3.6.5 1.2.8 1.8.6 1.4 1.3 2.8 1.8 4.2l.7 1.8-1 1.7c-1.5 2.4-2.6 5.1-3.3 7.9l-.5 1.9-1.8.8c-1.3.6-2.7 1.1-4 1.6-.7.3-1.4.5-2.1.8v3c.7.3 1.4.5 2.1.8 1.4.5 2.7 1 4 1.6l1.8.8.5 1.9c.7 2.8 1.8 5.4 3.3 7.9l1 1.7-.7 1.8c-.5 1.4-1.2 2.8-1.8 4.2-.3.6-.5 1.2-.8 1.8.6.7 1.3 1.3 2 2 .6-.3 1.2-.5 1.8-.8 1.4-.6 2.8-1.3 4.2-1.8l1.8-.7 1.7 1c2.4 1.5 5.1 2.6 7.9 3.3l1.9.5.8 1.8c.6 1.3 1.1 2.7 1.6 4 .3.7.6 1.4.8 2.1z"/><path class="st0" d="M141.9 254.7c-8.1 0-14.7-6.6-14.7-14.7s6.6-14.7 14.7-14.7 14.7 6.6 14.7 14.7-6.7 14.7-14.7 14.7zm0-26.4c-6.4 0-11.7 5.2-11.7 11.7s5.2 11.7 11.7 11.7 11.7-5.2 11.7-11.7-5.3-11.7-11.7-11.7z"/><path class="st0" d="M141.9 257.2c-9.5 0-17.2-7.7-17.2-17.2s7.7-17.2 17.2-17.2S159 230.5 159 240s-7.7 17.2-17.1 17.2zm0-26.4c-5.1 0-9.2 4.1-9.2 9.2s4.1 9.2 9.2 9.2 9.2-4.1 9.2-9.2-4.2-9.2-9.2-9.2zM171.6 187.9h-66l.6-5.1c.6-4.5.6-4.5.6-13.2 0-21.8 3.9-34.6 14.2-47.3 7.7-8.9 10.3-10.9 32-24.1 14.7-8.7 17.3-13.9 17.3-21.1 0-6.7-3.1-18-24-18-11.9 0-20.4 4-25.3 12-2.6 4.2-3.6 7.7-4.8 16.5l-.6 4.3L45 85.4l.6-4.7c3.1-22.5 8.4-35.2 20.3-48.3 18.4-20.8 46-31.4 82-31.4 28 0 51.7 6.6 68.3 19.1 17 12.8 25.9 31.1 25.9 52.9 0 19.4-6.6 34.9-20 47.4-7.6 6.9-11 9.3-37 25.4-11.3 7.3-15 13.6-15 25.9 0 3.5.3 6.8.9 11.1l.6 5.1zm-55.9-9h45.8c-.2-2.5-.4-4.8-.4-7.2 0-15.4 5.2-24.5 19.2-33.5 26.4-16.4 28.9-18.2 35.7-24.4 11.7-10.9 17.1-23.8 17.1-40.8 0-38.9-32.6-63-85.2-63-33.3 0-58.6 9.6-75.2 28.5-9.8 10.9-14.5 21.1-17.4 38.9l52.8 4.9c1.2-7.2 2.6-11.3 5.4-15.8 6.5-10.6 17.9-16.2 32.9-16.2 20.4 0 33 10.3 33 27 0 13.3-8 20.6-21.7 28.8-20.7 12.6-23 14.2-29.8 22.2-8.9 10.9-12.1 21.8-12.1 41.5 0 4.7 0 7.1-.1 9.1z"/></svg>